/* XPM */
static char *af5c2dd876f248bef52a296fee2e95fbn3u3fRxQHiUTw5yK[] = {
/* columns rows colors chars-per-pixel */
"80 80 16 1 ",
"  c #1B1516",
". c #282622",
"X c #7D162E",
"o c #423D37",
"O c #5F5C59",
"+ c #7B746D",
"@ c #951634",
"# c #BA0F37",
"$ c #866441",
"% c #8A6741",
"& c #9A7248",
"* c #B28F52",
"= c #B79456",
"- c #BA9759",
"; c #BD9B60",
": c #8A8581",
/* pixels */
"--;-;-;-;-;-;------;;---------------=----==---=------===----=====-=--=--==--=-==",
"-;;;-;-;;;;--;;;--;;;---------=-=================-=-=-==-=--===---=====-====-===",
"-;;-;--;;--;-;;-;----------=-===-=-=====--======-=-=====--===-==-==-=-=-===-====",
"--;-;;---;-;----;--;----==----===-=--===-==-=-==-===--=-=-====-==-=-===-===-=--=",
"=--;;-;-;;--------;---=====-=-=====-====---=--=-=-=--===-==-=-==================",
"-=-;--;-;------------==-==-==-===========-----=-----=-=====-=-========-========-",
"=====--------------==-====-=====-==------------===-=-=======-=====---==--===---=",
"===-=--------------=-========-====-=-=---------==========-==-===-==--===-=-====-",
"=-==-==--------=-====-===--==-=-====-=---==----==-===-=--====-===---------=--===",
"==-===-=-=-=----===---===--=========-==-=====-====-====-===-====-=----=--====-==",
"====-======-=---=-====-=-=--=-==-==          ======--=======-=-=========;--==-;;",
"====-====-=====-=====-===-===-====  ::::::::  ==-=-=====--======;=-==;-;==-;-=-=",
"-====-=-===--========-==-=-=---=-= :::::::::: ----=======-====;==;;==-;-;-==;===",
"========-===--=-=-===-==========-= :::::::::: ====---===-===;===;===;;-;-=;;===;",
"====--=====-================-===-= :::::::::: ==-===-=-==;===;;=-=-=-;;;=====;;=",
"=-=======-==========-==-========== O        : =====-=======-;;=;=;--;==;==-=====",
"--=-=--=--=-=-==-=========-======= O X    X : ====---==-=;=;-=;=-=;==;;;=;;=====",
"------------==-=-=-=--======-===== O:::  :::: ====-=====-=;=;=-=;;==-;=;;;=-===-",
"=-===-=-=====-====-=-===-==-=-==== O:::  :::: ======-====-=;=;;;-====--==;==-===",
"====-=================---=======-= OO::  O::: =============;;==;===;==;;==;;====",
"===-=========-=-===--==========    OOOO  OOOO    -========-;=;-=;;===-;=;=;=-==-",
"=-==-===-=-=======-=======      oo.          .oo      =======-=======---;;;;-==-",
"-===-====-==-===-=======-  +++ oooo..........oooo +++  ====--=-==-===----------=",
"-=======-===--====---==== ++++ ooooooo....ooooooo ++++ ==========---==-;-;----;-",
"===============-=-=-===-= ++++ ooooooo. .oooooooo ++++ =--====;===-=;-;---;-;-=;",
"=======-====-============ ++++ oooooooo .oooooooo ++++ -=-==----==;;;=;-=;==-;--",
";==---===-==-============ +++O oooooooo .oooooooo O+++ ====;=-;;;=;;=;;-;=-=;;-;",
"===-==----=============== ++OO oooooooo  oooooooo OO++ ;=;;-;==;=;;;-====-;=;=-=",
";-;-------=---=====-===== OOOO  ooooooo  ooooooo  OOOO =;=-;;;-==-;-=;==--======",
";;;-;-;;-;-==-=====--====        ooooo    ooooo        ;==;-;;====-========-==-=",
"-;;;-;---;=;=======-=====- &%% = ...   ..   ooo = %%& ===--=;--==-=-=-=====--=-=",
";------;;-==;=;==-===-==-= &&% = ......oo...... = %&& =;-=-;;====-==-===--==-===",
"-;----;;=-=-==--======-=== &&& - .ooooooooooo.. - &&& =======--=-=============-=",
";-;;--;-;==;==----=--=--=- &&& = ooooooooooooo. - &&& =======-========-========-",
"=;=;;;=;-;;-;;-=--===--=--- && = ooooooooooooo. = && =========-==============---",
";;===;=-=--;;;-=;;;;;=-==-  &&   ooooooooooooo.   &&  -=====================----",
";;;;-;=;-;;--=;=;;====---- %&&&  ooooooooooooo.  %&&& ===-===-===-====-===-=----",
"===--;;--;-;-;;-;=----=-== %&&&  ooooooooooooo.  %&&& =======--=======--===-----",
"===;;;;;;=;=;------=--=-=- %%%%  ..............  %%%% =================---------",
";;;---;-;===;=--=--------=                            -=--=====--=============-=",
";;;---;;;=;=-=-=-------=-=---===- @@@@@@@@@@@@ =====-=======-=-===-====-========",
"--;;-;;;;;;-=----------==-=--=--= @@########@@ =====-==-======---=--=--====-====",
";--;;-------------==----=---===== @##########@ ===========--====-==============-",
";;;;--;;-==----;--==-=-==-=---==- ###@    #### =====--==-==========-=-=======-==",
"--;----;;------=-------=----=---= ####@  @#### ===---===-====================--=",
"---;-;;-;----;;=;-=--------===--= @@@@@  @@@@@ =====-==-=-=-========--=---=-----",
"---;;;--;;-;=-;;=-=-----=--=---==              =--===-===-===========-=====-----",
";;--;;-------;;=-----=----=---=--= $$$$  $$$$ ==-===-=-=--=-======---=--===-==--",
";-;--;;-------=-=-=;-=;---=--===-- &&$$  $$&& ====-=======-==--==--=--====--=**=",
";;-----------------=-==---==--=;=- &&&$  $&&& -=-===-=-===-===============---==*",
";-;-;;-----------------;=;-=;-=;-=  &&&  &&&  =======--==========-==-===-====*==",
";-------------------==-=---;;==--=- &&&  &&& ======--===========-======*=====-==",
"--------------------=----------=-==- $ =- $ =====-========-=-========-*===-===-*",
"---=-=----=------------=---=;-=-=--= $ -- $ ===-======================*=-=====*=",
"-=--====-=--;=---==---=--=-=-=---=== $ == $ -=--===-=======-==-===--=*===-=-=-==",
"=====;==-;----=--=---==--=--=-=---== & =- & ===-====-=====-=====-=====-=-=======",
"==-==-------------====--===--=-=--=- & -= & -==-==--=-=======-=-====-===-=--==-=",
"-==--=;-------------=----=-;-====== &&&  &&  -=================-=========--==---",
"=--===------=--=-=----=-=-===--==- &&&&$$&&&& =======-====---=-=====-=-=-==---==",
"====-=---------------=--=---===-== &&&&$$&&&& =======-========--=-==-==-=-=-=---",
"-=-=-==-------------=----=----==== $$$$  $$$$ =-======-====-===-=-=====-=-===--=",
"=====--=-=---=-------===--==-===-==    ==    -=--===============--=-=-==-=---=-=",
"=-=====--=-;---==-===-=-=--==--=-===-===-======-===-===========-=-==-=;--==--=-=",
"====--==-====------=--=-=---==-=-==-=-========-==-========-=-==------;;---=-;---",
"=-=---=-----=-=--=--===-============-========-===-====-===--==--==---------=---=",
"-=--=-=---=--------============-======-=-======-====-=-=====--====--============",
"----=-------=----======-=====--======-==-=-=============-==-=-=======-==-=======",
"-=-==----=-------====-====-=====-=--==-================-==========-=======-=====",
"=-=------=-====-========-==-=-=====--=-=======-============-======-========-==-=",
"-=-=---===-=======-===--======--===============================-===-===========-",
"---=====---====---=-==-=-====-===-=====-===-===============-=====-=====-=-====--",
"---=====---------------======-======-==-=-=======;=-=-=====;=-==*=-*====-=-=*--*",
"---===-==----==--==-======-=====--=-========-========;====--*===--=----=----=-*-",
"---=---====-======-==--========-=====-=-=======---==;==-**;*-;=---==-====-=---=-",
"----=-========--=-===-=--=======-=-====-====--==--=-==-=*-====--*-=---=*----====",
"------====---===================-============-=---===---====-==-*=====--========",
"------=-==---===-================-=--=-=======-===-===-=*==-*=--==*====-======-=",
"---=========--=========--=---=-===-=---====-====-*-=======-========--===========",
"==--==-=-===--===--==============-=-=====-=====--=========================-=*--=",
"---==-====-=--==-=====-==-===-===--==-====-===-===-==;-============--=-=======-="
};
