/* XPM */
static char *_4c88b81408748cfa20ef9a7916e6523e0WrietqJPrgAe4F[] = {
/* columns rows colors chars-per-pixel */
"80 80 9 1 ",
"  c #1A1815",
". c #6D4414",
"X c #EB9531",
"o c #B28F52",
"O c #B79456",
"+ c #BA9759",
"@ c #BD9B60",
"# c #F9B15D",
"$ c #FAC588",
/* pixels */
"OO+O++OO++O++O+OOOOO++++OOO++++++O+++OO++++O+++++++++++++++@@++++++@+@+@+@+@+@++",
"OOO+OOOO+OOOOO+++OOO++O+OO+O+O+OOOOOOOOOOOOOOOOO+O+++++++++@@@++@@@++@@@@+@+@@@+",
"OOOO+OOO+O+O+OO+OO+OOO++OOOOO+O+OOOOOO++OOOOO+O+OOO+O++++++++++@+@@+@++@@++@+@@+",
"O++O+OOO+OOO+O+OO+OOOO+O+O++OOO+OO+O+OO+OOO++O+OOO++++OO++++@++@++++@+@+++@@+@++",
"OOOOOOOOOOOOOOOOOO+O+OO+OOO++O+O+O++O+++OOOO+OOOOO+O+OOOOO+++@++++++++@@+@+@@++O",
"+OOOOOOOO+OOOOOOOO+O+OOOOO+O+++++O+++++OOOOOOOOOOO+OO+OO+OO++++++++++++@+@++@+O+",
"O+++OOO++OO+++OOOOO+OOOOOOO+O+OOO++++++++++++OO+OOOOO+OOOO+OO++++++++++++++OOOOO",
"+OOOO+O+OOO++OO+OOO+OO+OOOOOOOOOO+++++++++O+O+OOOO+OOOOOOOO+O++++++++++++++O+OOO",
"OOO++O+++++++++OOO+OOOO++O+OOO+OO++++OO+++O+OOOO+O+OO++OOO+OOOO+O++++++++OO+OO+O",
"OO+OOOO++O++++O+OOOO+OOO+OOOO+OOOO+OOOOO+OO+OOOOOOOOO++OOO+++OOO++++O+O+O+OOO+OO",
"@@+OO++@OOOOOOOOO+O+OOOOOOO++OOOOOO++OOO+OOOOOO+OO+O++O+O+OOOO+O+++O+OOOOOO+OOOO",
"O+O+@+OO@+@OO+O@OOOOOO++OOOOO+O+OO+O+O+++OO++OOOOO+OOO+OOO+OOOOO+OOOOO+OOOO+OOOO",
"OOO@OO+@+@+OO@@OO@OOOO+OOOOOOO++++OO+OO++O++O+O+O+++O+O+OO+OOOOOOOO++OOO+O+OOOO+",
"@OOO@@O+@+@@OOO@OOO@OOO+OOO+++OOOOOOOOOOO++O++O+OOOOOOOOOO+OOO+O+O++OOO+OOOOOOOO",
"O@@OOOOO@@@+O+O+O@@OOO@OO+O+OOO+OOOOOOOOOOOOOOO+OOO+OOOOOOOOOOOOOOOO+OOOOO++OOOO",
"OOOOO+OO@OO@++@O@O@@+OOOOOOO+OOOOOOOO++OOOO+OOOOOOOOOOOO+OO+OOOOOOOOOO+OOOOOOO+O",
"OOOOO@@O@@@OO@O+O@O+@O@O+OO+++OOOOO+OOOOOOOOOOOOOOOOO+OOOOOOOOO+OO+O+O++O++O+O++",
"+OOO+O@@@O@+OO@@O+O@O@O+OOOOO+OOOOOOO+OOOOOO+OOOOOO+OOOOOO++O+O+O+OO++++++++++++",
"OOO+OO@OO++OOOO+@@@O@O+OOOO+OOOOOOOOOOOOOOO+OOOOOO+O+OO+OOO+O+OOOO+OOOOO+O+OOO+O",
"OOOO@@OO@@OO@OOO@OO@@OOOOOOOOOOOOO++OOOOOOOOOOO+OOOOOOO+++OOOOOOOOOOOOOOOOO+OOOO",
"+OO+O@O@O@+OOO@@O+@O@+OOOOOOOO++O+OOOOOOOO++++OOOOOOOOOOOOO++OOO+O+OOOOOOOOO+OOO",
"+OO+@@@@+++OOOOOOO+OOOOOOOOOOOO+O+O+OOO+OOOOOOOOOOOOOOOOOOOOO+OOOOOOO+O+OOO+OO+O",
"O++++++++++OOO+OO+O++OOOOOO+OO+O..................OOOOO+OOOOOOO+OOO+OO+OOOO+OOO+",
"+@++++@+@+OO+++OOOOOOOOOOOO+OO...XXXXXXXXXXXXXXXX...OOOOOOO+++OOOO++OOO+OOOOOOO+",
"@O+@+@+++@+@O+OOO@OOOO++OOOOO..XXXXXX###X######X###..OOO+OOO+O+O+OOOOOOOOOOOOOOO",
"++@+OO@O+@O@@@OO++++OO+O+OO+..XXXXXXXXXXXXXXXXXX#$$#..OOOOOOOOOOOOO+OOOO+OOOOOOO",
"@+@@O+O@+@@O@@O@@@+O@OOOOOO..XXXXXXXXXXXXXXXXXXX#$$$#..OOOOOOOOOOOO+OO+OOO+++OO@",
"O+O@O@+OOOO+@@@O@OO@+@@O@+..XXXXXXXXXXXXXXXXXXXXX#$$#X..OOOOOOOOOOOOOO++++OO+OOO",
"OOOOOO++OO@O+@+OO+@@@+O@OO.XXXXXXXXXXXXXXXXXXXXXXX###XX.OOOO+OOOOO+++O+++++++@+@",
"O+OO+OOOOOOOO+OOOO@@+@OO@..XXXXXXXX............XXXXXX#X..OO++OOOOO+OO+@+@@+@+@@@",
"O+O++OOOOO+O+O+OO++@O++OO.XXXXXXXX..XXXXXXXXXX..XXXXXXXX.OOO+OOOOOOO@O@+++@+@@@+",
"OOO+OO++OOO+OO+OOOO@@+O+@.XXXXXXX..XXXXXXXXXXXX..XXXXX#X.O+OOO+OO@O@OO+@@++++++@",
"O+OOOOOOOOOOOOO+O++OOOOOO.XXXXXXX.XXXXXXXXXXXXXX.XXXXX#X.+OOOOOO++OO+O+O@@++++@+",
"+OOOOOOOO+OOOOOOOO+OOOOOO.XXXXXXX.XXXXXXXXXXXXXX.XXXXX#X.+O++O++++OO@OO@+@++@@+@",
"+++OOOOOOOOOOOOOO+OOOOOOO.XXXXXXX.XXXXXXXXXXXXXX.XXXXX#X.++OOO++O+@@+@@+@O@@@O@O",
"++++OOOOOOOOOOOOOOOOOOOOO.XXXXXXX.XXXXXXXXXXXXXX.XXXXX#X.+O@@@@@O+@@@++O+O@OOO@@",
"++++O+OOO+OOOO+OOO+OOO+OO.XXXXXXX.XXXXXXXXXXXXXX.XXXXX#X.+OOOO@@O@O++@@+@O@+@@@@",
"+++++OOO++OOOOOOO++OOOOOO.XXXXXXX.XXXXXXXXXXXXXX.XXXXX#X.O++++O@+@@+@+@++@@++OOO",
"+++++++++OOOOOOOOOOOOOOOO.XXXXXXX.XXXXXXXXXXXXXX.XXXXXXX.O++O++++++@O@O@@@@@@OOO",
"O+OOOOOOOOOOOOO++OOOOO++O.XXXXXXX.XXXXXXXXXXXXXX.XXXXX#X.++++++O++O@OOO@+@+++@@@",
"OOOOOOOO+OOOO+OOO+O+OOOOO.XXXXXXX.XXXXXXXXXXXXXX.XXXXXXX.+++++++O+O+O@O@@@+++@@@",
"OOOO+OOOO++O++O+++OOOOOO+.XXXXXXX.XXXXXXXXXXXXXX.XXXXXXX.++++++++++O+@@@@@@+@@++",
"+OOOOOOOOOOOOOO+OOOO++OOO.XXXXXXX.XXXXXXXXXXXXXX.XXXXXXX.+++OO+++++++++++++@@++@",
"OO+OOOOOOO+O+OOOOOOOOOO+O.XXXXXXX..XXXXXXXXXXXX..XXXXXXX.+O+OO++@++++OO+@@++@@@@",
"O++OOOOOOOOOOOOOOOOOOOO+O.XXXXXXXX..XXXXXXXXXX..XXXXXXXX.+++++++O++++++@@++++@++",
"+++++O+++O++OOOOOOOO+O+O+..XXXXXXXX............XXXXXXXX..++++O+@O@@++++@+@@+@+++",
"+++++OOOOO+OOOOOOOOOOO+OOO.XXXXXXXXXXXXXXXXXXXXXXXXXXXX.+++++O+O@@+O@+@@++@@@+++",
"++OO+OOO++O+++OOOOOO+O++O+..XXXXXXXXXXXXXXXXXXXXXXXXXX..++O+++++O@@+++++++@@++@@",
"OooO++OOOO++O++OO++OO+OOOOO..XXXXXXXXXXXXXXXXXXXXXXXX..++@O+@O+O+O+++++++@@++@+@",
"oOO+++OOOOOOOOOOOOOOO+OOO+O+..XXXXXXXXXXXXXXXXXXXXXX..+++OO+O+++++++++++++++++@@",
"OOoOOOO+OOO+OO+OOOOOOOOOO++OO..XXXXXXXXXXXXXXXXXXXX..+@O@+++++++++++++++++@@+@+@",
"OO+OOOOOoOOOOOO+OOOOOOOOOOO++O...XXXXXXXXXXXXXXXX...@+++O+OO+++++++++++++++++++@",
"o+OOO+OOOo+OOOOOOOO+O+OOOOOOOO+O..................+++++++++O++++++++++++++++++++",
"OoOOOOO+OoOOOOOOOOOOOOOOOOOOOOOO+OOOOOO++O++O++O+O+@O+++O++++++++++++O++++O+O+++",
"OO+O+O+OOOoO++OOO+OO+OOOOOOO+OOO++O+O+OOOOO+OOO+++O+O+O++O+++OO+++O@++O+OOOO++O+",
"OOOOOOO+O+OOOOO+OOOOO+OOOOO+OOOO+OOOOOO+OOOOOO+++O+O++O++OO+++O++O++++@+OO@OOOOO",
"O+OO++O+OOO+OOOO+O+OOOOOOO+O++OO+OO+OOOO+O+O+O++O+O++OOO++OOOO+++++++++++++OO+OO",
"+++OO++OOOOOOOOO+OOOOOOOOOOOOOOOOO+OOOOOO+OO+OOOOOO+@+O++++O+++++++++++++@O++OO+",
"OO+++OO+O+O+OOOOO+O+++OOOO+OOOOOOOOOOOOO+OOOOO+OO++OOO+O+O++++O+O++O++++++OOO++O",
"+++O+O+O+OO+OO+O++OOOOOOOO+OOOOOOOO+OOOOOOO++OOO+OOO+++O++O+++++++++++++++O+OOOO",
"O++OOO+O+OOOOO+O+OOO+OOOO+OOOOOO+OO+OOO+OOOOOOOOOO++++O++++O+++++++++++++OO+O+O+",
"O+O+++O+OO+O+O++OOOOOOOOOOOOOOO++O++OOOOOOOOOOO+OOO+OO++OOO+++++++O+++O+O++OOOOO",
"O+O++OO++@O+OO+O+OOOOOOOOOOO+OOO+OOOOOO+OOO+OOO+O++OO++O+O+OOO+OO+++@+O++OOOOO+O",
"+++@+O+++@@++++++OO+O+OOOOOOOO+OO+OOOOOOOO+O+OO+O+OO+++O+O++O++++++OOOO+OO++OOOO",
"O+++O+++++++++OO++OO++OOO+OOOO+OOO+OOOOOOOO+OOOOOOOOOOOO+OOO++O++O+O+++++O+++O+O",
"OOOOOOOOOOOO++OOOO++OOOOO+O+OOOO+OOOOOO+O+OOOOOO+OOOOOOOOOOOO++++++++O+++O+O++O+",
"OOOOOOO+OO+OOOOOOO+O+OO+OOOOO                        OOO+OOOOOO++++O+++++++O++++",
"OOOOO+OOOOOOO+OOOOOOOOOO+OO                            OOO+OOOO+++++++O++++OO+O+",
"O+OO+OOOOOOOO+OOOOOO+OOOOO                              OOOOOOOO+OOOO+O++++++O+O",
"+OOOOOOOOOOO+OOO+OOOOOOOOOO                            O++OOO+OOOOOOO+OOO+++O+O+",
"++OOOO+O+OOOOO+OOOOO+OOOOOOOO                        OO+O+OO+O+++OOOO+++OOOOO+++",
"o++oO+O+OOOOo+OoOO+O@OOOOO+O+O@OOOOOOO+O+OO+OOOOOO+OOOOOO+++++++++++++++OOOOO+++",
"+o+O++++O++++O++OOOo++OOOO@OOOOOOOO+OOOOOOOO+O++OOOOO+OOOOOO+OO++OO++++OO+OOO+++",
"+O+++O+OOOO+OO+++O@+o@oo+OO@OO+++OOOOOOO+O+OOOOO+OOOOOOOO++OO+OOOOOO+OOOO+++O+++",
"OOOO++++oO+++O+o++OOOO+oO+OO+O++OO++OOOO+OOOO+O+OOOOOOO++O+OOO+O++OOOOOOOO+O++++",
"OOOOOOOO++OOOOOo+OO+OOOO+++OOO+++O+OOOOOOOOOOOO+OOOOOOOOOOOOOOOOOOO+++OOOO++++++",
"O+OOOOOO+OOOOoOO++Oo+OOoO+OOO+OOO+OOOOOOO+O++O+OOOOOOOOOOOOOOOO+OOO+++OO+O++++++",
"OOOOOOOOOOO++OOOOOOOO+OOOOOOO+o+OOOO+OOOO+++O+OOO+O+++O++OOOOOOOOO++OOOOOOOOO+++",
"O++oO+OOOOOOOOOOOOOOOOOOOOOOOOO++OOOOO+OOOOO+O+OOOOOOOOOOOOOO++OOO++OOO+O+OO++OO",
"O+OOOOOOO+O++OOOOOOOOOOOO+@OO+OOO+OOO+OOOO+OO++OOO+OOO+OO+OOOOO+OO++O+OOOO+OO+++"
};
