/* XPM */
static char *_a37680d4c004d7788d3733e0edceca2edIrrSkB0vlE7RWK[] = {
/* columns rows colors chars-per-pixel */
"80 80 12 1 ",
"  c #241202",
". c #271503",
"X c #2E1803",
"o c #412C02",
"O c #492309",
"+ c #582705",
"@ c #805B0F",
"# c #C98A09",
"$ c #B28F52",
"% c #B79456",
"& c #BA9759",
"* c #BD9B60",
/* pixels */
"%%&%&&%%&&%&&%&%%%%%&&&&%%%&&&&&&%&&&%%&&&&%&&&&&&&&&&&&&&&**&&&&&&*&*&*&*&*&*&&",
"%%%&%%%%&%%%%%&&&%%%&&%&%%&%&%&%%%%%%%%%%%%%%%%%&%&&&&&&&&&***&&***&&****&*&***&",
"%%%%&%%%&%&%&%%&%%&%%%&&%%%%%&%&%%%%%%&&%%%%%&%&%%%&%&&&&&&&&&&*&**&*&&**&&*&**&",
"%&&%&%%%&%%%&%&%%&%%%%&%&%&&%%%&%%&%&%%&%%%&&%&%%%&&&&%%&&&&*&&*&&&&*&*&&&**&*&&",
"%%%%%%%%%%%%%%%%%%&%&%%&%%%&&%&%&%&&%&&&%%%%&%%%%%&%&%%%%%&&&*&&&&&&&&**&*&**&&%",
"&%%%%%%%%&%%%%%%%%&%&%%%%%&%&&&&&%&&&&&%%%%%%%%%%%&%%&%%&%%&&&&&&&&&&&&*&*&&*&%&",
"%&&&%%%&&%%&&&%%%%%&%%%%%%%&%&%%%&&&&&&&&&&&&%%&%%%%%&%%%%&%%&&&&&&&&&&&&&&%%%%%",
"&%%%%&%&%XXXXXXXXXXXXXXXXXXXXXXXXXXXXXXXXXXXXXXXXXXXXXXXXXXXXXXXXXXXXXX&&&&%&%%%",
"%%%&&%&&&XXXXXXXXXXXXXXXXXXXXXXXXXXXXXXXXXXXXXXXXXXXXXXXXXXXXXXXXXXXXXX&&%%&%%&%",
"%%&%%%%&&XXXX+++++++++XXXXXX+++++++++XXXXXX+++++++++XXXXXX+++++++++XXXX&%&%%%&%%",
"**&%%&&*%XXX+++++++++++XXXX+++++++++++XXXX+++++++++++XXXX+++++++++++XXX%%%%&%%%%",
"%&%&*&%%*XX+++O+++++++++XX+++O+++++++++XX+++++++++++++XX+++++++++++++XX%%%%&%%%%",
"%%%*%%&*&XX++O++++++++++XX+++O+++++++++XX+++++O+++++++XX+++++++++++++XX%&%&%%%%&",
"*%%%**%&*XX++O++++++++++XX+++O+++++++++XX+++++O+++++++XX++OO+++++++++XX&%%%%%%%%",
"%**%%%%%*XX++O++++++++++XX+++O+++++++++XX++++O++++++++XX++O+++O++++++XX%%%&&%%%%",
"%%%%%&%%*XX+O+++++++++++XX++OO+++++++++XX++++O++++++++XX++O+++O++++++XX%%%%%%%&%",
"%%%%%**%*XX+O+++++++++++XX++O++++++++++XX++++O++++++++XX++O+++O++++++XX&%&&%&%&&",
"&%%%&%***XX+O++++O++++++XX++O++++++++++XX++++O++++++++XX++O+++OO+++++XX&&&&&&&&&",
"%%%&%%*%%XX+O++++OO+++++XX++O++++++++++XX+++++O+++++++XX++O++++O+++++XX%&%&%%%&%",
"%%%%**%%*XX+O+++++O+++++XX++O++++O+++++XX+++++OO++++++XX+O++O++O+++++XX%%%%&%%%%",
"&%%&%*%*%XX+O+++++O+++++XX++O++++O+++++XX++++++O++++++XX+O++O++O+++++XX%%%%%&%%%",
"&%%&****&XX++O++++++++++XX++O++++O+++++XX++++++O++++++XX+O++O++OO++++XX&%%%&%%&%",
"%&&&&&&&&XX++O++++++++++XX++OO+++O+++++XX++++++O++++++XX+O++O+++O++++XX%%%%&%%%&",
"&*&&&&*&*XX++O++++O+++++XX+++O+++O+++++XX++++++O++++++XX+O++O+++O++++XX&%%%%%%%&",
"*%&*&*&&&XX++O++++O+++++XX++OO++++O++++XX++OO++O++++++XX+O++O+++O++++XX%%%%%%%%%",
"&&*&%%*%&XX++O++++++++++XX++O+++++O++++XX++OOO++O+++++XX+O++O++++++++XX%&%%%%%%%",
"*&**%&%*&XX++O+++++O++++XX++O+++++O++++XX++O+O++O+++++XX++O+O++++++++XX%%%&&&%%*",
"%&%*%*&%%XX++++++++O++++XX++OO++++O++++XX+OO+O++++++++XX++++O++++++++XX&&&%%&%%%",
"%%%%%%&&%XX++++++++O++++XX+++O++++O++++XX+O++O+++O++++XX++++O++++++++XX&&&&&&*&*",
"%&%%&%%%%XX++++++++O++++XX+++OO+++O++++XX+O++O+++O++++XX++++O+++O++++XX&**&*&***",
"%&%&&%%%%XX+++++++++O+++XX++++O+++O++++XX+O++++++O++++XX++++O+++O++++XX&&&*&***&",
"%%%&%%&&%XX+++++++++O+++XX++++++++O++++XX++O+++++O++++XX++++++++O++++XX**&&&&&&*",
"%&%%%%%%%XX+++++++++++++XX++++++++O++++XX++O+++++O++++XX++++++++O++++XX%**&&&&*&",
"&%%%%%%%%XX++++++++++O++XX++++++++O++++XX++O+++++O++++XX++++++++O++++XX*&*&&**&*",
"&&&%%%%%%XX+++++O++++O++XX+++++++++O+++XX+++++++OO++++XX++++++++O++++XX&*%***%*%",
"&&&&%%%%%XX+++++O++++O++XX+++++++++O+++XX++++++OO+++++XX++++++++O++++XX%&%*%%%**",
"&&&&%&%%%XX+++++O++++O++XX+++++++++O+++XX+++O++O++++++XX++++++++O++++XX&*%*&****",
"&&&&&%%%&XX+++++O++++O++XX++++++++OO+++XX+++O+++++++++XX++++O+++O++++XX&&**&&%%%",
"&&&&&&&&&XX+++++O++++OO+XX+++++O++O++++XX+++O+++O+++++XX++++O+++OO+++XX******%%%",
"%&%%%%%%%XX++++OO+++++O+XX++++O+++O++++XX+++O++O+OO+++XX++++O++++O+++XX*&*&&&***",
"%%%%%%%%&XX++++O+++++O++XX++++O++OO++++XX+++O++O++O+++XX+++O+++++++++XX***&&&***",
"%%%%&%%%%XX++++O+++++O++XX++++O++O+++++XX++++++O++++++XX+++O+++++++++XX****&**&&",
"&%%%%%%%%XX++++O+++++O++XX++++O++O+++++XX++++++O++++++XX+++O+++++++++XX&&&&**&&*",
"%%&%%%%%%XX++++O+++++O++XX++++O++O+++++XX++++O+OO+++++XX+++O+++++O+++XX&**&&****",
"%&&%%%%%%XX++++O+++++O++XX++++O++O+++++XX++++O++O+++++XX+++++O+++O+++XX**&&&&*&&",
"&&&&&%&&&XX++++O+++++O++XX++++O++++++++XX++++O++O+++++XX+++++O+++O+++XX*&**&*&&&",
"&&&&&%%%%XX++++O+++++O++XX++++O++++++++XX++++O++OO++++XX+++++O+++O+++XX*&&***&&&",
"&&%%&%%%&XX++++++++++O++XX+++++++++++++XX++++O+++OO+++XX+++++O+++O+++XX&&&**&&**",
"%$$%&&%%%XX++++++++++O++XX++++++++O++++XX++++O++++O+++XX++++++O++++++XX&&**&&*&*",
"$%%&&&%%%XX+++++++++++++XX++++++++O++++XX+++OO++++++++XX++++++O++++++XX&&&&&&&**",
"%%$%%%%&%XX++O+++O++++++XX+++O++++O++++XX+++++++++++++XX+++++++++++++XX&&&**&*&*",
"%%&%%%%%$XX++O+++O++++++XX+++O++++O++++XX+++++++++++++XX+++++++++++++XX&&&&&&&&*",
"$&%%%&%%%XX++O+++O++++++XX+++O++++O++++XX+++O+++++++++XX+++++++++++++XX&&&&&&&&&",
"%$%%%%%&%XX++O+++O++++++XX+++O++++OO+++XX+++O++++O++++XX+++++++++O+++XX&&&%&%&&&",
"%%&%&%&%%XX++O++++O+O+++XX+++O+++++O+++XX++++++++O++++XX++++++O++O+++XX&%%%%&&%&",
"%%%%%%%&%XX++O+++++OO+++XX+++OO++++O+++XX++++++++O++++XX++++++O++OO++XX&%%*%%%%%",
"%&%%&&%&%XX++OO+++++++++XX++++O++++O+++XX++++++++O++++XX++++++O+++O++XX&&&&%%&%%",
"&&&%%&&%%XX+++++++++++++XX++++O++++O+++XX+++++O+++O+++XX++++++++++O++XX&&*%&&%%&",
"%%&&&%%&%XX+++++O+++++++XX++++O++++O+++XX+++++OO++++O+XX++++O+++++O++XX&&&%%%&&%",
"&&&%&%&%&XX++++++O++++++XX+++++O+++++++XX++++++O++++O+XX+++O++++++O++XX&&&%&%%%%",
"%&&%%%&%&XX+++++++O+++++XX+++++O+++++++XX+++++++O+++O+XX++O++++++OO++XX&&%%&%&%&",
"%&%&&&%&%XX+++++++O+++++XX+++++O+++++++XX+++++++++++++XX++O++++++O+++XX&%&&%%%%%",
"%&%&&%%&&XX+++++++O+++++XX+++++O+++++++XX+++++++++++++XX++O+++++O++++XX&&%%%%%&%",
"&&&*&%&&&XX+++++++O+++++XX++++OO+++++++XX++++++++++O++XX+++O++++O++++XX&%%&&%%%%",
"%&&&%&&&&XX+++++++O+++++XX++++O+++++########+++++++O++XX+++O++++OO+++XX&&%&&&%&%",
"%%%%%%%%%XX+++++++O+++++XX++++O+++@@@@@@@@@###++++O+++XX++++OO+++O+++XX&&%&%&&%&",
"%%%%%%%&%XX++++++O++++++XX++++O+++@@@@@@@@@@@#+++O++++XX+++++++++O+++XX&&&&%&&&&",
"%%%%%&%%%XX++++++O++++++XX+++++++Oo@@@    @@@@++++++++XX+++++++++OO++XX&&&&%%&%&",
"%&%%&%%%%XX+++++++++++++XX+++++++Oo@@@O. Oo@@@++++++++XX++++++++++O++XX&&&&&&%&%",
"&%%%%%%%%XXX+++++++++++XXXX+++++OOooooO..Ooo@@+++++++XXXX+++++++++++XXX%%&&&%&%&",
"&&%%%%&%&XXXX+++++++++XXXXXX+++OOOOOOO....OO++++++++XXXXXX+++++++++XXXX&%%%%%&&&",
"$&&$%&%&%XXXXXXXXXXXXXXXXXXXXXX.......XXXX..XXXXXXXXXXXXXXXXXXXXXXXXXXX&%%%%%&&&",
"&$&%&&&&%XXXXXXXXXXXXXXXXXXXXXXXXXXXXXXXXXXXXXXXXXXXXXXXXXXXXXXXXXXXXXX%%&%%%&&&",
"&%&&&%&%%%%&%%&&&%*&$*$$&%%*%%&&&%%%%%%%&%&%%%%%&%%%%%%%%&&%%&%%%%%%&%%%%&&&%&&&",
"%%%%&&&&$%&&&%&$&&%%%%&$%&%%&%&&%%&&%%%%&%%%%&%&%%%%%%%&&%&%%%&%&&%%%%%%%%&%&&&&",
"%%%%%%%%&&%%%%%$&%%&%%%%&&&%%%&&&%&%%%%%%%%%%%%&%%%%%%%%%%%%%%%%%%%&&&%%%%&&&&&&",
"%&%%%%%%&%%%%$%%&&%$&%%$%&%%%&%%%&%%%%%%%&%&&%&%%%%%%%%%%%%%%%%&%%%&&&%%&%&&&&&&",
"%%%%%%%%%%%&&%%%%%%%%&%%%%%%%&$&%%%%&%%%%&&&%&%%%&%&&&%&&%%%%%%%%%&&%%%%%%%%%&&&",
"%&&$%&%%%%%%%%%%%%%%%%%%%%%%%%%&&%%%%%&%%%%%&%&%%%%%%%%%%%%%%&&%%%&&%%%&%&%%&&%%",
"%&%%%%%%%&%&&%%%%%%%%%%%%&*%%&%%%&%%%&%%%%&%%&&%%%&%%%&%%&%%%%%&%%&&%&%%%%&%%&&&"
};
