/* XPM */
static char *_8d6ece1910642f5b52f26d0dbb1a17cmkdTXMhFv0nCaoYg[] = {
/* columns rows colors chars-per-pixel */
"80 80 12 1 ",
"  c #160E04",
". c #140F0C",
"X c #1E1306",
"o c #1A120D",
"O c #1D140E",
"+ c #291907",
"@ c #3B250C",
"# c #55330C",
"$ c #B28F52",
"% c #B79456",
"& c #BA9759",
"* c #BD9B60",
/* pixels */
"%%&%&&%%&&%&&%&%%%%%&&&&%%%&&&&&&%&&&%%&&&&%&&&&&&&&&&&&&&&**&&&&&&*&*&*&*&*&*&&",
"%%%&%%%%&%%%%%&&&%%%&&%&%%&%&%&%%%%%%%%%%%%%%%%%&%&&&&&&&&&***&&***&&****&*&***&",
"%%%%&%%%&%&%&%%&%%&%%%&&%%%%%&%&%%%%%%&&%%%%%&%&%%%&%&&&&&&&&&&*&**&*&&**&&*&**&",
"%&&%&%%%&%%%&%&%%&%%%%&%&%&&%%%&%%&%&%%&%%%&&%&%%%&&&&%%&&&&*&&*&&&&*&*&&&**&*&&",
"%%%%%%%%%%%%%%%%%%&%&%%&%%%&&%&%&%&&%&&&%%%%&%%%%%&%&%%%%%&&&*&&&&&&&&**&*&**&&%",
"&%%%%%%%%&%%%%%%%%&%&%%%%%&%&&&&&%&&&&&%%%%%%%%%%%&%%&%%&%%&&&&&&&&&&&&*&*&&*&%&",
"%&&&%%%&&%%&&&%%%%%&%%%%%%%&%&%%%&&&&&&&&&&&&%%&%%%%%&%%%%&%%&&&&&&&&&&&&&&%%%%%",
"&%%%%&%&%OOOOOOOOOOOOOOOOOOOOOOOOOOOOOOOOOOOOOOOOOOOOOOOOOOOOOOOOOOOOOO&&&&%&%%%",
"%%%&&%&&&OOOOOOOOOOOOOOOOOOOOOOOOOOOOOOOOOOOOOOOOOOOOOOOOOOOOOOOOOOOOOO&&%%&%%&%",
"%%&%%%%&&OOOOOOOOOOOOOOOOOOOOOOOOOOOOOOOOOOOOOOOOOOOOOOOOOOOOOOOOOOOOOO&%&%%%&%%",
"**&%%&&*%OOOooooooooooooooooooooooooooooooooooooooooooooooooooooooooOOO%%%%&%%%%",
"%&%&*&%%*OOOooooooooooooooooooooooooooooooooooooooooooooooooooooooooOOO%%%%&%%%%",
"%%%*%%&*&OOOooooooooooooooooooooooooooooooooooooooooooooooooooooooooOOO%&%&%%%%&",
"*%%%**%&*OOOooooooooooooooooooooooooooooooooooooooooooooooooooooooooOOO&%%%%%%%%",
"%**%%%%%*OOOooooooooooooooooooooooooooooooooooooooooooooooooooooooooOOO%%%&&%%%%",
"%%%%%&%%*OOOooooo..............................................oooooOOO%%%%%%%&%",
"%%%%%**%*OOOooooo..............................................oooooOOO&%&&%&%&&",
"&%%%&%***OOOooooo..............................................oooooOOO&&&&&&&&&",
"%%%&%%*%%OOOooooo..............................................oooooOOO%&%&%%%&%",
"%%%%**%%*OOOooooo..............................................oooooOOO%%%%&%%%%",
"&%%&%*%*%OOOooooo..............................................oooooOOO%%%%%&%%%",
"&%%&****&OOOooooo..............................................oooooOOO&%%%&%%&%",
"%&&&&&&&&OOOooooo..............................................oooooOOO%%%%&%%%&",
"&*&&&&*&*OOOooooo..............................................oooooOOO&%%%%%%%&",
"*%&*&*&&&OOOooooo..............................................oooooOOO%%%%%%%%%",
"&&*&%%*%&OOOooooo..............................................oooooOOO%&%%%%%%%",
"*&**%&%*&OOOooooo..............................................oooooOOO%%%&&&%%*",
"%&%*%*&%%OOOooooo..............................................oooooOOO&&&%%&%%%",
"%%%%%%&&%OOOooooo..............................................oooooOOO&&&&&&*&*",
"%&%%&%%%%OOOooooo..............................................oooooOOO&**&*&***",
"%&%&&%%%%OOOooooo..............................................oooooOOO&&&*&***&",
"%%%&%%&&%OOOooooo..............................................oooooOOO**&&&&&&*",
"%&%%%%%%%OOOooooo..............................................oooooOOO%**&&&&*&",
"&%%%%%%%%OOOooooo..............................................oooooOOO*&*&&**&*",
"&&&%%%%%%OOOooooo..............................................oooooOOO&*%***%*%",
"&&&&%%%%%OOOooooo..............................................oooooOOO%&%*%%%**",
"&&&&%&%%%OOOooooo..............................................oooooOOO&*%*&****",
"&&&&&%%%&OOOooooo..............................................oooooOOO&&**&&%%%",
"&&&&&&&&&OOOooooo..........                          ..........oooooOOO******%%%",
"%&%%%%%%%OOOooooo..........                          ..........oooooOOO*&*&&&***",
"%%%%%%%%&OOOooooo..........                          ..........oooooOOO***&&&***",
"%%%%&%%%%OOOooooo......XXXXXXXXXXXXXXXXXXXXXXXXXXXXXXXXXX......oooooOOO****&**&&",
"&%%%%%%%%OOOooooo.....XXXXXXXXXXXXXXXXXXXXXXXXXXXXXXXXXXXX.....oooooOOO&&&&**&&*",
"%%&%%%%%%OOOooooo.....XXXXXXXXXXXXXXXXXXXXXXXXXXXXXXXXXXXX.....oooooOOO&**&&****",
"%&&%%%%%%OOOooooo.....XXXXXXXXXXXXXXXXXXXXXXXXXXXXXXXXXXXX.....oooooOOO**&&&&*&&",
"&&&&&%&&&OOOooooo..++++++++++++++++++++++++++++++++++++++++++..oooooOOO*&**&*&&&",
"&&&&&%%%%OOOooooo.++++++++++++++++++++++++++++++++++++++++++++.oooooOOO*&&***&&&",
"&&%%&%%%&OOOooooo.+++ ++++++++++  ++++++   +++++   +   +++++++.oooooOOO&&&**&&**",
"%$$%&&%%%OOOooooo.+++  + + +  ++++ +++ ++++ ++++ +++++++++++++.oooooOOO&&**&&*&*",
"$%%&&&%%%OOOooooo.+++++++  ++  +++   ++   + ++++++++  +++   ++.oooooOOO&&&&&&&**",
"%%$%%%%&%OOOooooo.+++++++++++++++++++++++++++++++++++ +  +++++.oooooOOO&&&**&*&*",
"%%&%%%%%$OOOooooo.++++++++++++++++++++++++++++++++++++++++++++.oooooOOO&&&&&&&&*",
"$&%%%&%%%OOOoooo@@@@@@@@@@@@@@@@@@@@@@@@@@@@@@@@@@@@@@@@@@@@@@@@ooooOOO&&&&&&&&&",
"%$%%%%%&%OOOooo@@@@@@@@@@@@@@@@@@@@@@@@@@@@@@@@@@@@@@XXXXXXX@@@@@oooOOO&&&%&%&&&",
"%%&%&%&%%OOOooo@@@@@@@@@@@@@@@@@@@@XXX@@@@@@@XXXXXXXXX@@@@@@@@@@@oooOOO&%%%%&&%&",
"%%%%%%%&%OOOooo@@@@@@XXXX@@@@@@XXXXX@@@@@@@@X@@@@@@XX@@@@@@@@@@@@oooOOO&%%*%%%%%",
"%&%%&&%&%OOOooo@@@@@@@@@@@@@@@@@@@@@@@@@@@@@@@@@@@XX@@@@@@@@@XX@@oooOOO&&&&%%&%%",
"&&&%%&&%%OOOooo@@@@@@@@XXXX@@@@@@X@@@@X@@@@@@@XX@X@@@@@@XXXXXX@@@oooOOO&&*%&&%%&",
"%%&&&%%&%OOOooo@@@@@@@@@@@XXX@X@@@@@@@@@@@@@@@@@@@@@@@@@@@@@@@@@@oooOOO&&&%%%&&%",
"&&&%&%&%&OOOooo@@@@@@@@@@@@@@@@@@@@@@@@@@@@@@@@@@@@@@@@@@@@@@@@@@oooOOO&&&%&%%%%",
"%&&%%%&%&OOOo######################################################oOOO&&%%&%&%&",
"%&%&&&%&%OOO########################################################OOO&%&&%%%%%",
"%&%&&%%&&OOO########+++++###########################################OOO&&%%%%%&%",
"&&&*&%&&&OOO###############+++++##################+#################OOO&%%&&%%%%",
"%&&&%&&&&OOO####++################################+#################OOO&&%&&&%&%",
"%%%%%%%%%OOO###+##################++++##+++++#######################OOO&&%&%&&%&",
"%%%%%%%&%OOO###+###++++###+++++++++####++##############++++###+++###OOO&&&&%&&&&",
"%%%%%&%%%OOO##########################+##++++####+####++########+++#OOO&&&&%%&%&",
"%&%%&%%%%OOO##########################################+#############OOO&&&&&&%&%",
"&%%%%%%%%OOOo######################################################OOOO%%&&&%&%&",
"&&%%%%&%&OOOOOOOOOOOOOOOOOOOOOOOOOOOOOOOOOOOOOOOOOOOOOOOOOOOOOOOOOOOOOO&%%%%%&&&",
"$&&$%&%&%OOOOOOOOOOOOOOOOOOOOOOOOOOOOOOOOOOOOOOOOOOOOOOOOOOOOOOOOOOOOOO&%%%%%&&&",
"&$&%&&&&%OOOOOOOOOOOOOOOOOOOOOOOOOOOOOOOOOOOOOOOOOOOOOOOOOOOOOOOOOOOOOO%%&%%%&&&",
"&%&&&%&%%%%&%%&&&%*&$*$$&%%*%%&&&%%%%%%%&%&%%%%%&%%%%%%%%&&%%&%%%%%%&%%%%&&&%&&&",
"%%%%&&&&$%&&&%&$&&%%%%&$%&%%&%&&%%&&%%%%&%%%%&%&%%%%%%%&&%&%%%&%&&%%%%%%%%&%&&&&",
"%%%%%%%%&&%%%%%$&%%&%%%%&&&%%%&&&%&%%%%%%%%%%%%&%%%%%%%%%%%%%%%%%%%&&&%%%%&&&&&&",
"%&%%%%%%&%%%%$%%&&%$&%%$%&%%%&%%%&%%%%%%%&%&&%&%%%%%%%%%%%%%%%%&%%%&&&%%&%&&&&&&",
"%%%%%%%%%%%&&%%%%%%%%&%%%%%%%&$&%%%%&%%%%&&&%&%%%&%&&&%&&%%%%%%%%%&&%%%%%%%%%&&&",
"%&&$%&%%%%%%%%%%%%%%%%%%%%%%%%%&&%%%%%&%%%%%&%&%%%%%%%%%%%%%%&&%%%&&%%%&%&%%&&%%",
"%&%%%%%%%&%&&%%%%%%%%%%%%&*%%&%%%&%%%&%%%%&%%&&%%%&%%%&%%&%%%%%&%%&&%&%%%%&%%&&&"
};
