/* XPM */
static char *bc0ad77ee8b5404088655795cc0afb50LnOcab2rXwsb2UWq[] = {
/* columns rows colors chars-per-pixel */
"80 80 4 1 ",
"  c #B28F52",
". c #B79456",
"X c #BA9759",
"o c #BD9B60",
/* pixels */
"..X.XX..XX.XX.X.....XXXX...XXXXXX.XXX..XXXX.XXXXXXXXXXXXXXXooXXXXXXoXoXoXoXoXoXX",
"...X....X.....XXX...XX.X..X.X.X.................X.XXXXXXXXXoooXXoooXXooooXoXoooX",
"....X...X.X.X..X..X...XX.....X.X......XX.....X.X...X.XXXXXXXXXXoXooXoXXooXXoXooX",
".XX.X...X...X.X..X....X.X.XX...X..X.X..X...XX.X...XXXX..XXXXoXXoXXXXoXoXXXooXoXX",
"..................X.X..X...XX.X.X.XX.XXX....X.....X.X.....XXXoXXXXXXXXooXoXooXX.",
"X........X........X.X.....X.XXXXX.XXXXX...........X..X..X..XXXXXXXXXXXXoXoXXoX.X",
".XXX...XX..XXX.....X.......X.X...XXXXXXXXXXXX..X.....X....X..XXXXXXXXXXXXXX.....",
"X....X.X...XX..X...X..X..........XXXXXXXXX.X.X....X........X.XXXXXXXXXXXXXX.X...",
"...XX.XXXXXXXXX...X....XX.X...X..XXXX..XXX.X....X.X..XX...X....X.XXXXXXXX..X..X.",
"..X....XX.XXXX.X....X...X....X....X.....X..X.........XX...XXX...XXXX.X.X.X...X..",
"ooX..XXo.........X.X.......XX......XX...X......X..X.XX.X.X....X.XXX.X......X....",
".X.XoX..oXo..X.o......XX.....X.X..X.X.XXX..XX.....X...X...X.....X.....X....X....",
"...o..XoXoX..oo..o....X.......XXXX..X..XX.XX.X.X.XXX.X.X..X........XX...X.X....X",
"o...oo.XoXoo...o...o...X...XXX...........XX.XX.X..........X...X.X.XX...X........",
".oo.....oooX.X.X.oo...o..X.X...X...............X...X................X.....XX....",
".....X..o..oXXo.o.ooX.......X........XX....X............X..X..........X.......X.",
".....oo.ooo..o.X.o.Xo.o.X..XXX.....X.................X.........X..X.X.XX.XX.X.XX",
"X...X.ooo.oX..oo.X.o.o.X.....X.......X......X......X......XX.X.X.X..XXXXXXXXXXXX",
"...X..o..XX....Xooo.o.X....X...............X......X.X..X...X.X....X.....X.X...X.",
"....oo..oo..o...o..oo.............XX...........X.......XXX.................X....",
"X..X.o.o.oX...oo.Xo.oX........XX.X........XXXX.............XX...X.X.........X...",
"X..XooooXXX.......X............X.X.X...X.....................X.......X.X...X..X.",
".XXXXXXXXXX...X..X.XX......X..X.....X...........X......X.......X...X..X....X...X",
"XoXXXXoXoX..XXX............X....................XX.........XXX....XX...X.......X",
"o.XoXoXXXoXo.X...o....XX........X.............X.X.......X...X.X.X...............",
"XXoX..o.Xo.ooo..XXXX..X.X..X..X.....X...........XX...X.............X....X.......",
"oXoo.X.oXoo.oo.oooX.o........XXX....X.XXX......X...................X..X...XXX..o",
".X.o.oX....Xooo.o..oXoo.oX.............X...XX..X......................XXXX..X...",
"......XX..o.XoX..XoooX.o..........X....XXXXXXXXXX..X........X.....XXX.XXXXXXXoXo",
".X..X........X....ooXo..o........XX.....XX...X.XX.X...X....XX.....X..XoXooXoXooo",
".X.XX.....X.X.X..XXo.XX..........X....X..X...X........X.....X.......o.oXXXoXoooX",
"...X..XX...X..X....ooX.Xo...X....X..X.....X............X..X...X..o.o..XooXXXXXXo",
".X.............X.XX............X...XX.X..X......X..XX....X......XX..X.X.ooXXXXoX",
"X........X........X.......X...XX...........X..........X.XX.XX.XXXX..o..oXoXXooXo",
"XXX..............X...................X...X.........XXXXX.XX...XX.XooXooXo.ooo.o.",
"XXXX.....................X............X...........X.XXX..X.ooooo.XoooXX.X.o...oo",
"XXXX.X...X....X...X...X....X..X.....................XXXXXX....oo.o.XXooXo.oXoooo",
"XXXXX...XX.......XX.....................................X.XXXX.oXooXoXoXXooXX...",
"XXXXXXXXX............................X..X.....X....XXXX.X.XX.XXXXXXo.o.oooooo...",
".X.............XX.....XX.XX.X...XX..........X......X.X.XXXXXXXX.XX.o...oXoXXXooo",
"........X....X...X.X.......X......X...X.X....X.X...XXX.X.XXXXXXX.X.X.o.oooXXXooo",
"....X....XX.XX.XXX......X..X...........X.XX...X.XX.XX.X..XXXXXXXXXX.XooooooXooXX",
"X..............X....XX.............X...XX.XX........XXX.XXXX..XXXXXXXXXXXXXooXXo",
"..X.......X.X..........X..XX......X.....XXXX...X..XXX.X..X.X..XXoXXXX..XooXXoooo",
".XX....................X...XXX...X.....X.XXXX.X.XXX.XXXX.XXXXXXX.XXXXXXooXXXXoXX",
"XXXXX.XXX.XX........X.X.X..X..........X.XXX.XXX.XX...XXXXXXXX.Xo.ooXXXXoXooXoXXX",
"XXXXX.....X...........X...X...XX.....X.XX..XXX...XXX.XX.XXXXX.X.ooX.oXooXXoooXXX",
"XX..X...XX.XXX......X.XX.X.X...X.......X..X.XX.XX.XXX.XXXX.XXXXX.ooXXXXXXXooXXoo",
".  .XX....XX.XX..XX..X.......X......XX.X.XX.XXXX...XX.XXXo.Xo.X.X.XXXXXXXooXXoXo",
" ..XXX...............X...X.X...X.X.X..oXX.XXXXX.o.XX..XXX..X.XXXXXXXXXXXXXXXXXoo",
".. ....X...X..X..........XX.........XXXXXXXXXX.Xo.Xo.Xo.oXXXXXXXXXXXXXXXXXooXoXo",
"..X..... ......X...........XX........XXXXXX.XX.XX..ooXXX.X..XXXXXXXXXXXXXXXXXXXo",
" X...X... X........X.X........X.......XX.XXXX..X.XXXXXXXXXX.XXXXXXXXXXXXXXXXXXXX",
". .....X. ......................X......XX.XX.XX.X.Xo.XXX.XXXXXXXXXXXX.XXXX.X.XXX",
"..X.X.X... .XX...X..X.......X...XX.X.X.....X...XXX.X.X.XX.XXX..XXX.oXX.X....XX.X",
".......X.X.....X.....X.....X....X......X......XXX.X.XX.XX..XXX.XX.XXXXoX..o.....",
".X..XX.X...X....X.X.......X.XX..X..X....X.X.X.XX.X.XX...XX....XXXXXXXXXXXXX..X..",
"XXX..XX.........X.................X......X..X......XoX.XXXX.XXXXXXXXXXXXXo.XX..X",
"..XXX..X.X.X.....X.XXX....X.............X.....X..XX...X.X.XXXX.X.XX.XXXXXX...XX.",
"XXX.X.X.X..X..X.XX........X........X.......XX...X...XXX.XX.XXXXXXXXXXXXXXX.X....",
".XX...X.X.....X.X...X....X......X..X...X..........XXXX.XXXX.XXXXXXXXXXXXX..X.X.X",
".X.XXX.X..X.X.XX...............XX.XX...........X...X..XX...XXXXXXX.XXX.X.XX.....",
".X.XX..XXo.X..X.X...........X...X......X...X...X.XX..XX.X.X...X..XXXoX.XX.....X.",
"XXXoX.XXXooXXXXXX..X.X........X..X........X.X..X.X..XXX.X.XX.XXXXXX....X..XX....",
".XXX.XXXXXXXXX..XX..XX...X....X...X........X............X...XX.XX.X.XXXXX.XXX.X.",
"............XX....XX.....X.X....X......X.X......X............XXXXXXXX.XXX.X.XX.X",
".......X..X.......X.X..X.............X.X..X......XX.....X......XXXX.XXXXXXX.XXXX",
".....X.......X..........X................X..XX.X.....X....X....XXXXXXX.XXXX..X.X",
".X..X........X......X............X.......X.XX.....X.X..X........X....X.XXXXXX.X.",
"X...........X...X...............................XX......XX...X.......X...XXX.X.X",
"XX....X.X.....X.....X...............X...X.....X...X....X.X..X.XXX....XXX.....XXX",
" XX .X.X.... X. ..X.o.....X.X.o.......X.X..X......X......XXXXXXXXXXXXXXX.....XXX",
"X X.XXXX.XXXX.XX... XX....o........X........X.XX.....X......X..XX..XXXX..X...XXX",
"X.XXX.X....X..XXX.oX o  X..o..XXX.......X.X.....X........XX..X......X....XXX.XXX",
"....XXXX .XXX.X XX....X .X..X.XX..XX....X....X.X.......XX.X...X.XX........X.XXXX",
"........XX..... X..X....XXX...XXX.X............X...................XXX....XXXXXX",
".X......X.... ..XX. X.. .X...X...X.......X.XX.X................X...XXX..X.XXXXXX",
"...........XX........X.......X X....X....XXX.X...X.XXX.XX.........XX.........XXX",
".XX .X.........................XX.....X.....X.X..............XX...XX...X.X..XX..",
".X.......X.XX............Xo..X...X...X....X..XX...X...X..X.....X..XX.X....X..XXX"
};
