/* XPM */
static char *_a11328b7fee40dbec695e7950b1b1feaVm2S8m5ybfwPYEH[] = {
/* columns rows colors chars-per-pixel */
"80 80 45 1 ",
"  c black",
". c #000505",
"X c #040B61",
"o c #071E75",
"O c #B28F52",
"+ c #B39157",
"@ c #B79456",
"# c #B79457",
"$ c #B69558",
"% c #B5965C",
"& c #B4975F",
"* c #BA9759",
"= c #BA975A",
"- c #B9985B",
"; c #B8995E",
": c #AF9C6B",
"> c #B39861",
", c #B79960",
"< c #B79A62",
"1 c #B29964",
"2 c #B19A66",
"3 c #B69B64",
"4 c #B59C67",
"5 c #BD9B60",
"6 c #B09B6A",
"7 c #B39E6B",
"8 c #B29E6E",
"9 c #1A1A8D",
"0 c #0A2899",
"q c #2D2C83",
"w c #1918AB",
"e c #1B37A5",
"r c #193DC5",
"t c #3158D6",
"y c #3063E5",
"u c #228BD4",
"i c #1B99F0",
"p c #0AD7D7",
"a c #00DBFF",
"s c #30CBE5",
"d c #30DFE5",
"f c #09E4E4",
"g c #0CF6F6",
"h c #00F1FF",
"j c #00FDFD",
/* pixels */
"@@*@**@@**@**@*@@@@@****@@@******@***@@****@***************55******5*5*5*5*5*5**",
"@@@*@@@@*@@@@@***@@@**@*@@*@*@*@@@@@@@@@@@@@@@@@*@*********555**555**5555*5*555*",
"@@@@*@@@*@*@*@@*@@*@@@**@@@@@*@*@@@@@@**@@@@@*@*@@@*@**********5*55*5**55**5*55*",
"@**@*@@@*@@@*@*@@*@@@@*@*@**@@@*@@*@*@@*@@@**@*@@@****@@****5**5****5*5***55*5**",
"@@@@@@@@@@@@@@@@@@*@*@@*@@@**@*@*@**@***@@@@*@@@@@*@*@@@@@***5********55*5*55**@",
"*@@@@@@@@*@@@@@@@@*@*@@@@@*@*****XXX***@@@@@@@@@@@*@@*@@*@@************5*5**5*@*",
"@***@@@**@@***@@@@@*@@@@@@@*@*@XXXXXXX*******@@*@@@@@*@@@@*@@**************@@@@@",
"*@@@@*@*@@@**@@*@@@*@@*@@@@@@@XXXXhhXXX***@*@*@@@@*@@@@@@@@*@**************@*@@@",
"@@@**@*********@@@*@@@@**@*@@@XXhhdhhhXXX8@*@@@@*@*@@**@@@*@@@@*@********@@*@@*@",
"@@*@@@@**@****@*@@@@*@@@*@@@@XXhdddddhhhXX@*@@@@@@@@@**@@@***@@@****@*@*@*@@@*@@",
"55*@@**5@@@@@@@@@*@*@@@@@@@**XhhdddddddhhhXX@@@*@@*@**@*@*@@@@*@***@*@@@@@@*@@@@",
"@*@*5*@@5*5@@*@5@@@@@@**@@@@@XddXXdddddddhhXX@@@@@*@@@*@@@*@@@@@*@@@@@*@@@@*@@@@",
"@@@5@@*5*5*@@55@@5@@@@*@@@@@@XdXXXXdddddddhhXXX*@***@*@*@@*@@@@@@@@**@@@*@*@@@@*",
"5@@@55@*5*55@@@5@@@5@@@*@@@**XXX@@@XXdddddddhhXXX@@@@@@@@@*@@@*@*@**@@@*@@@@@@@@",
"@55@@@@@555*@*@*@55@@@5@@*@*@@@*@@@@XdddddddddhhXX@*@@@@@@@@@@@@@@@@*@@@@@**@@@@",
"@@@@@*@@5@@5**5@5@55*@@@@@@@*@@@@@@XddddddddddddhXX@@@@@*@@*@@@@@@@@@@*@@@@@@@*@",
"@@@@@55@555@@5@*@5@*5@5@*@@***@@XXXXddddddddddddhhXX@*@@@@@@@@@*@@*@*@**@**@*@**",
"*@@@*@555@5*@@55@*@5@5@*@@@@@*XXXddddddddddddddddhhX@@@@@@**@*@*@*@@************",
"@@@*@@5@@**@@@@*555@5@*@@@@*:XXdddddddddddddddddddhXX+@*@@@*@*@@@@*@@@@@*@*@@@*@",
"@@@@55@@55@@5@@@5@@55@@@@@6XXXdddddddddsdddddddddgdhXX@***@@@@@@@@@@@@@@@@@*@@@@",
"*@@*@5@5@5*@@@55@*5@5*@@@XXXdddddddddddssdddddddgggdhXX@@@@**@@@*@*@@@@@@@@@*@@@",
"*@@*5555***@@@@@@@*@@@@@XXddddddddddddssssdddddgjjjgdhXX@@@@@*@@@@@@@*@*@@@*@@*@",
"@**********@@@*@@*@**@@XXddddddddddddssssssddddgjjjggdhXX%@@@@@*@@@*@@*@@@@*@@@*",
"*5****5*5*@@***@@@@@@1XXddddddddddddssssdssddddgjjjjggfhXX%***@@@@**@@@*@@@@@@@*",
"5@*5*5***5*5@*@@@5@@1XXdddddddddddddssssssdsdddggjjjjjgfhXX$*@*@*@@@@@@@@@@@@@@@",
"**5*@@5@*5@555@@***,XXddddddddddsdsssssssssssdddgggjjjgfhhX1@@@@@@@*@@@@*@@@@@@@",
"5*55@*@5*55@55@555*XXdddddddddddddssssssssssssdddfgggjgfdhXX%@@@@@@*@@*@@@***@@5",
"@*@5@5*@@@@*555@5@XXdddddddddddsdsss   ssssssssddfffggfffhhX$@@@@@@@@@****@@*@@@",
"@@@@@@**@@5@*5*@@*Xddddddddddsddssss     ssssdsddsdfff   dhXX6@@@@***@*******5*5",
"@*@@*@@@@@@@@*@@@XXddddddddddddssssss      sssssddddd    ddhXX@@@@*@@*5*55*5*555",
"@*@**@@@@@*@*@*@$Xddddddddddssssssss  XX    sssssddd  eoodddhX%@@@@@5@5***5*555*",
"@@@*@@**@@@*@@*@XXdddddddddssssssds Xoooooo  sssssdd 0r0ooddhXX@@5@5@@*55******5",
"@*@@@@@@$@@@@@$XXddddddsdssssssssssXXoooojjo  ssssd  r jjooddhX>**@@*@*@55****5*",
"*@@@@@@@#-@@@@@Xdddddddddsssssssds Xo00  pjj0  sss  or  j0oddhXX**@@-@#5*5**55*5",
"***@@@@@##@@@>Xdddddddddssssssssssoo00    prr0o ssso0    r0oddhX%*55-55*5@555@5@",
"****@@@@##@@@XXdddsddddsssssssssssorr0     rr0osssso0r  rrooddhX**555****@5@@@55",
"****@*@@#*@@1Xddddssdddsssssssssssorrap    r00osssso000r0oodddhX*,#**55*5@5*5555",
"*****@@@**@@XXddddddddssssdsssssssoorrap  rrr0osssssoooooodddddXX55*5*5**55**@@@",
"*********@@%Xddddddddsdssssssssssssorrrarrrr0ossssssssssdddddddhX-*5@5@555555@@@",
"@*@@@@@@@@@XXddddddddssssssssssssssoorrrrrrooosssssssssssdddsdddX4@5@@@5*5***555",
"@@@@@@@@*##XddddddddssssssssssssssssoooooooossssssssssssssdddddhXX**#-*555***555",
"@@@@*@@@#*XXddddddsdssssssssssssssssssssssssssssssssssssssddddddhX***55-555*55**",
"*@@@@@@@##XdddddddddsssssssssssssssssssssssssssssssssssssssdddddhXX********55**5",
"@@*@@@@@#XXddddddddssssssssssssssssssssssssssssssssssssssssddddddhX***@*55**5555",
"@**@@@@@$XdddddddddssdsssssssssssssssssssssssssssssssssssssdddddddXX***55****5**",
"*****@**-XdddddddddsssssssssssssssssssssssssssssssssssssssssddddddhX-**5*55*5***",
"*****@@@@XdddddddddsssssssssssssssssssssssssssssssssssssssssddddddhXX*55**555***",
"**@@*@@@-XdddddddddssssssssssssssssssssssssssssssssssssssssssddddddhX*****55**55",
"@OO@**@@@Xdddddddddsssssssssssssssssssssssssssssss      wssssdddddddhX***-5-*5*5",
"O@@***@@@Xdddddddddsssssssssssssssssssssssssssss       .  yssddddddddX,****-**55",
"@@O@@@@*@Xdddddddddssssssssssssssssssssssssssss           yssdddddddhXX***55*5*5",
"@@*@@@@@OXdddddsdddsssssssssssssssssssssssssss             ysddddsdddhX3***-***-",
"O*@@@*@@@Xdddddssdddsssssssssssssssssssssssss            . wsdsddsdddddX********",
"@O@@@@@*@Xddddddddddssssssssssssssssiiiiiiis               wsddddddddddX**#*#***",
"@@*@*@*@@Xdddddddddddsssssssssiiiiiiiiiiiiii         rrrrr ydddddddddddX*###**#*",
"@@@@@@@*@Xdddddddddddddssssiiiiiisiiiiiiiiii       oo  rrrrrrdddssdddddX##-*##@@",
"@*@@**@*@Xddddddssddddduiiiiiiiiiiiiiisiiii   .   ooooo   rrrssdssdddddX***@@*@@",
"***@@**#@Xddddddssddssuuuiiiiiiiiiiiiiiiiii      ooooooooo rrrussddddddX*;@**@@*",
"@@***@#*@-Xdddddddssuuuuuuiiiiiiiiiiiiiiiii      XXoooooooo rruuusdsdddX**@@@**@",
"***@*@*#*@Xddddddsuuuuuuuuuiiiiiiiiiiiiiiiiw    oXXXXXooooo rrruuuddddXX**@*@@@@",
"@**@##*#-#,Xddddsuuuuuuiiiuuuiiiiiiiiiiiiiiiw9qq9wtttXXoooo rrruuusdddX,*#@*@*@*",
"@*@***#*#$-XXddduuuuuuuiiuuuuuiiiiiiiiiiiiiiiiuuuuuuttXoooo rrruuuuddXX*#**@@@@@",
"**@**#$**-$3XdduuuuuuuuuuuuuuiuuuuuuuuuuuuuuuuuuuuuuutXXoo rrruuuuuddX>**@@@@@*@",
"***-*#***5---XduuuuuuuuuuuuuuuuuuuuuuuuuuuuuuuuuuuuuuttXoo rrruuuuudXX@*@@**@@@@",
"#***@********XXduuuuuuuuuuuuuuuuuuuuuuuuuuuuuuuuuuuutttXoorrruuuuudXX8***@***@*@",
"@#@@@@@@@@@@-,XXiduuuuuuuuuuuuuuuiiuuuuuuuuuuuuuiuuutttooorruuuuuudX4#***@*@**@*",
"@@@@@@@*@@*@*@%XXiiuuuuuuuuuuuuuiiuuuuuuuuuuuuuiiuuuuttttuuuuuuuudXX-******@****",
"@@@@@*@@@@@@***@XXXdiiuuuuuuuuuuuuuuuuuuuuuuuuuiuuuuuuttuuuuuuudiXX4-*@****@@*@*",
"@*@@*@@@@@@@@*@@@$XXXiiuuuuuuuuuuuuuuuiuuuuuuuuuuuuuuuuuuuuuuudXXX>@#*@******@*@",
"*@@@@@@@@@@@*@@@%@@&XXXiiiuuuuuuuuuuuuuuuuuuuuuuuuuuuuuuuuuiiiXX>@@@#*@@@***@*@*",
"**@@@@*@*@@@@@*@*@@@*,XXXXiiiiiiiiiiiiiiiiiiiiiiiiiiiiiiiiiXXX,**@@@@***@@@@@***",
"O**O@*@*@@@@O*@O@@*@;@@&1XXXXXXXXXXXXXXXXXXXXXXXXXXXXXXXXXXX4****-******@@@@@***",
"*O*@****@****@**@@@O**@@@@5@@@@#&,:8::6>>@@@*@**@#@@@*@@@@@@*@@**@@****@@*@@@***",
"*@***@*@@@@*@@***@5*O5OO$@*%@@***@@@@@@@*@*@@@@@-#@@@@@@@**@@*@@#@@@*@@@@***@***",
"@@@@****O@***@*O**@@@@*O$**@*@**@@**@@@@*@@@@*@*@@@@@@@**@*@@@*@**@@@@@@@@*@****",
"@@@@@@@@**@@@@@O*@@*@@@@***@@@***@*@@@@@@@@@@@@*@@@@@@@@@@@@@@@@@@@***@@@@******",
"@*@@@@@@*@@@@O@@**@O*@@O@*@@@*@@@*@@@@@@@*@**@*@@@@@@@@@@@@@@@@*@@@***@@*@******",
"@@@@@@@@@@@**@@@@@@@@*@@@@@@@*O*@@@@*@@@@***@*@@@*@***@**@@@@@@@@@**@@@@@@@@@***",
"@**O@*@@@@@@@@@@@@@@@@@@@@@@@@@**@@@@@*@@@@@*@*@@@@@@@@@@@@@@**@@@**@@@*@*@@**@@",
"@*@@@@@@@*@**@@@@@@@@@@@@*5@@*@@@*@@@*@@@@*@@**@@@*@@@*@@*@@@@@*@@**@*@@@@*@@***"
};
