/* XPM */
static char *result[] = {
/* columns rows colors chars-per-pixel */
"80 80 4 1 ",
"  c #2A0409",
". c #440A12",
"X c #730817",
"o c #E52842",
/* pixels */
"                                                                                ",
"  oooooooooooooooo    oooooooooooooooo    oooooooooooooooo    oooooooooooooooo  ",
" XXXXXXXXXXXXXXXXXo  XXXXXXXXXXXXXXXXXo  XXXXXXXXXXXXXXXXXo  XXXXXXXXXXXXXXXXXo ",
" XXXXXXXXXXXXXXXXXo  XXXXXXXXXXXXXXXXXo  XXXXXXXXXXXXXXXXXo  XXXXXXXXXXXXXXXXXo ",
" XXXXXXXXXXXXXXXXXX  XXXXXXXXXXXXXXXXXX  XXXXXXXXXXXXXXXXXX  XXXXXXXXXXXXXXXXXX ",
" XXXXXXXXXXXXXXXXXX  XXXXXXXXXXXXXXXXXX  XXXXXXXXXXXXXXXXXX  XXXXXXXXXXXXXXXXXX ",
" .XXXXXXXXXXXXXXXXX  .XXXXXXXXXXXXXXXXX  .XXXXXXXXXXXXXXXXX  .XXXXXXXXXXXXXXXXX ",
" .XXXXXXXXXXXXXXXXX  .XXXXXXXXXXXXXXXXX  .XXXXXXXXXXXXXXXXX  .XXXXXXXXXXXXXXXXX ",
"  ................    ................    ................    ................  ",
"                                                                                ",
"                                                                                ",
"oooooooo    oooooooooooooooo    oooooooooooooooo    oooooooooooooooo    oooooooo",
"XXXXXXXXo  XXXXXXXXXXXXXXXXXo  XXXXXXXXXXXXXXXXXo  XXXXXXXXXXXXXXXXXo  XXXXXXXXX",
"XXXXXXXXo  XXXXXXXXXXXXXXXXXo  XXXXXXXXXXXXXXXXXo  XXXXXXXXXXXXXXXXXo  XXXXXXXXX",
"XXXXXXXXX  XXXXXXXXXXXXXXXXXX  XXXXXXXXXXXXXXXXXX  XXXXXXXXXXXXXXXXXX  XXXXXXXXX",
"XXXXXXXXX  XXXXXXXXXXXXXXXXXX  XXXXXXXXXXXXXXXXXX  XXXXXXXXXXXXXXXXXX  XXXXXXXXX",
"XXXXXXXXX  .XXXXXXXXXXXXXXXXX  .XXXXXXXXXXXXXXXXX  .XXXXXXXXXXXXXXXXX  .XXXXXXXX",
"XXXXXXXXX  .XXXXXXXXXXXXXXXXX  .XXXXXXXXXXXXXXXXX  .XXXXXXXXXXXXXXXXX  .XXXXXXXX",
"........    ................    ................    ................    ........",
"                                                                                ",
"                                                                                ",
"  oooooooooooooooo    oooooooooooooooo    oooooooooooooooo    oooooooooooooooo  ",
" XXXXXXXXXXXXXXXXXo  XXXXXXXXXXXXXXXXXo  XXXXXXXXXXXXXXXXXo  XXXXXXXXXXXXXXXXXo ",
" XXXXXXXXXXXXXXXXXo  XXXXXXXXXXXXXXXXXo  XXXXXXXXXXXXXXXXXo  XXXXXXXXXXXXXXXXXo ",
" XXXXXXXXXXXXXXXXXX  XXXXXXXXXXXXXXXXXX  XXXXXXXXXXXXXXXXXX  XXXXXXXXXXXXXXXXXX ",
" XXXXXXXXXXXXXXXXXX  XXXXXXXXXXXXXXXXXX  XXXXXXXXXXXXXXXXXX  XXXXXXXXXXXXXXXXXX ",
" .XXXXXXXXXXXXXXXXX  .XXXXXXXXXXXXXXXXX  .XXXXXXXXXXXXXXXXX  .XXXXXXXXXXXXXXXXX ",
" .XXXXXXXXXXXXXXXXX  .XXXXXXXXXXXXXXXXX  .XXXXXXXXXXXXXXXXX  .XXXXXXXXXXXXXXXXX ",
"  ................    ................    .................  .................  ",
"                                                                                ",
"                                                                                ",
"oooooooo    oooooooooooooooo    oooooooooooooooo    oooooooooooooooo    oooooooo",
"XXXXXXXXo  XXXXXXXXXXXXXXXXXo  XXXXXXXXXXXXXXXXXo  XXXXXXXXXXXXXXXXXo  XXXXXXXXX",
"XXXXXXXXo  XXXXXXXXXXXXXXXXXo  XXXXXXXXXXXXXXXXXo  XXXXXXXXXXXXXXXXXo  XXXXXXXXX",
"XXXXXXXXX  XXXXXXXXXXXXXXXXXX  XXXXXXXXXXXXXXXXXX  XXXXXXXXXXXXXXXXXX  XXXXXXXXX",
"XXXXXXXXX  XXXXXXXXXXXXXXXXXX  XXXXXXXXXXXXXXXXXX  XXXXXXXXXXXXXXXXXX  XXXXXXXXX",
"XXXXXXXXX  .XXXXXXXXXXXXXXXXX  .XXXXXXXXXXXXXXXXX  .XXXXXXXXXXXXXXXXX  .XXXXXXXX",
"XXXXXXXXX  .XXXXXXXXXXXXXXXXX  .XXXXXXXXXXXXXXXXX  .XXXXXXXXXXXXXXXXX  .XXXXXXXX",
"........    ................    ................    ................    ........",
"                                                                                ",
"                                                                                ",
"  oooooooooooooooo    oooooooooooooooo    oooooooooooooooo    oooooooooooooooo  ",
" XXXXXXXXXXXXXXXXXo  XXXXXXXXXXXXXXXXXo  XXXXXXXXXXXXXXXXXo  XXXXXXXXXXXXXXXXXo ",
" XXXXXXXXXXXXXXXXXo  XXXXXXXXXXXXXXXXXo  XXXXXXXXXXXXXXXXXo  XXXXXXXXXXXXXXXXXo ",
" XXXXXXXXXXXXXXXXXX  XXXXXXXXXXXXXXXXXX  XXXXXXXXXXXXXXXXXX  XXXXXXXXXXXXXXXXXX ",
" XXXXXXXXXXXXXXXXXX  XXXXXXXXXXXXXXXXXX  XXXXXXXXXXXXXXXXXX  XXXXXXXXXXXXXXXXXX ",
" .XXXXXXXXXXXXXXXXX  .XXXXXXXXXXXXXXXXX  .XXXXXXXXXXXXXXXXX  .XXXXXXXXXXXXXXXXX ",
" .XXXXXXXXXXXXXXXXX  .XXXXXXXXXXXXXXXXX  .XXXXXXXXXXXXXXXXX  .XXXXXXXXXXXXXXXXX ",
"  ................    ................    ................    ................  ",
"                                                                                ",
"                                                                                ",
"oooooooo    oooooooooooooooo    oooooooooooooooo    oooooooooooooooo    oooooooo",
"XXXXXXXXo  XXXXXXXXXXXXXXXXXo  XXXXXXXXXXXXXXXXXo  XXXXXXXXXXXXXXXXXo  XXXXXXXXX",
"XXXXXXXXo  XXXXXXXXXXXXXXXXXo  XXXXXXXXXXXXXXXXXo  XXXXXXXXXXXXXXXXXo  XXXXXXXXX",
"XXXXXXXXX  XXXXXXXXXXXXXXXXXX  XXXXXXXXXXXXXXXXXX  XXXXXXXXXXXXXXXXXX  XXXXXXXXX",
"XXXXXXXXX  XXXXXXXXXXXXXXXXXX  XXXXXXXXXXXXXXXXXX  XXXXXXXXXXXXXXXXXX  XXXXXXXXX",
"XXXXXXXXX  .XXXXXXXXXXXXXXXXX  .XXXXXXXXXXXXXXXXX  .XXXXXXXXXXXXXXXXX  .XXXXXXXX",
"XXXXXXXXX  .XXXXXXXXXXXXXXXXX  .XXXXXXXXXXXXXXXXX  .XXXXXXXXXXXXXXXXX  .XXXXXXXX",
"........    ................    ................    ................    ........",
"                                                                                ",
"                                                                                ",
"  oooooooooooooooo    oooooooooooooooo    oooooooooooooooo    oooooooooooooooo  ",
" XXXXXXXXXXXXXXXXXo  XXXXXXXXXXXXXXXXXo  XXXXXXXXXXXXXXXXXo  XXXXXXXXXXXXXXXXXo ",
" XXXXXXXXXXXXXXXXXo  XXXXXXXXXXXXXXXXXo  XXXXXXXXXXXXXXXXXo  XXXXXXXXXXXXXXXXXo ",
" XXXXXXXXXXXXXXXXXX  XXXXXXXXXXXXXXXXXX  XXXXXXXXXXXXXXXXXX  XXXXXXXXXXXXXXXXXX ",
" XXXXXXXXXXXXXXXXXX  XXXXXXXXXXXXXXXXXX  XXXXXXXXXXXXXXXXXX  XXXXXXXXXXXXXXXXXX ",
" .XXXXXXXXXXXXXXXXX  .XXXXXXXXXXXXXXXXX  .XXXXXXXXXXXXXXXXX  .XXXXXXXXXXXXXXXXX ",
" .XXXXXXXXXXXXXXXXX  .XXXXXXXXXXXXXXXXX  .XXXXXXXXXXXXXXXXX  .XXXXXXXXXXXXXXXXX ",
"  ................    ................    ................    ................  ",
"                                                                                ",
"                                                                                ",
"oooooooo    oooooooooooooooo    oooooooooooooooo    oooooooooooooooo    oooooooo",
"XXXXXXXXo  XXXXXXXXXXXXXXXXXo  XXXXXXXXXXXXXXXXXo  XXXXXXXXXXXXXXXXXo  XXXXXXXXX",
"XXXXXXXXo  XXXXXXXXXXXXXXXXXo  XXXXXXXXXXXXXXXXXo  XXXXXXXXXXXXXXXXXo  XXXXXXXXX",
"XXXXXXXXX  XXXXXXXXXXXXXXXXXX  XXXXXXXXXXXXXXXXXX  XXXXXXXXXXXXXXXXXX  XXXXXXXXX",
"XXXXXXXXX  XXXXXXXXXXXXXXXXXX  XXXXXXXXXXXXXXXXXX  XXXXXXXXXXXXXXXXXX  XXXXXXXXX",
"XXXXXXXXX  .XXXXXXXXXXXXXXXXX  .XXXXXXXXXXXXXXXXX  .XXXXXXXXXXXXXXXXX  .XXXXXXXX",
"XXXXXXXXX  .XXXXXXXXXXXXXXXXX  .XXXXXXXXXXXXXXXXX  .XXXXXXXXXXXXXXXXX  .XXXXXXXX",
"........    ................    ................    ................    ........",
"                                                                                "
};
