/* XPM */
static char *_361616db66e417aecc50a91dd94660dEnFuLzzmkDX9cJxf[] = {
/* columns rows colors chars-per-pixel */
"80 80 15 1 ",
"  c #1B1516",
". c #282622",
"X c #423D37",
"o c #5F5C59",
"O c #7B746D",
"+ c #951634",
"@ c #BA0F37",
"# c #866441",
"$ c #8A6741",
"% c #9A7248",
"& c #B28F52",
"* c #B79456",
"= c #BA9759",
"- c #BD9B60",
"; c #8A8581",
/* pixels */
"==-=-=-=-=-=-======--===============*====**===*======***====*****=*==*==**==*=**",
"=---=-=----==---==---=========*=*****************=*=*=**=*==***===*****=****=***",
"=--=-==--==-=--=-==========*=***=*=*****==******=*=*****==***=**=**=*=*=***=****",
"==-=--===-=-====-==-====**====***=*==***=**=*=**=***==*=*=****=**=*=***=***=*==*",
"*==--=-=--========-===*****=*=*****=****===*==*=*=*==***=**=*=******************",
"=*=-==-=-============**=**=**=***********=====*=====*=*****=*=********=********=",
"*****==============**=****=*****=**============***=*=*******=*****===**==***===*",
"***=*==============*=********=****=*=*=========**********=**=***=**==***=*=****=",
"*=**=**========*=****=***==**=*=****=*===**====**=***=*==****=***=========*==***",
"**=***=*=*=*====***===***==*********=**=*****=****=****=***=****=*====*==****=**",
"****=******=*===*=****=*=*==*=**=**          ******==*******=*=*********-==**=--",
"****=****=*****=*****=***=***=****  ;;;;;;;;  **=*=*****==******-*=**-=-**=-=*=*",
"=****=*=***==********=**=*=*===*=* ;;;;;;;;;; ====*******=****-**--**=-=-=**-***",
"********=***==*=*=***=**********=* ;;;;;;;;;; ****===***=***-***-***--=-=*--***-",
"****==*****=****************=***=* ;;;;;;;;;; **=***=*=**-***--*=*=*=---*****--*",
"*=*******=**********=**=********** o;;;;;;;;; *****=*******=--*-*-==-**-**=*****",
"==*=*==*==*=*=**=*********=******* o;;;;;;;;; ****===**=*-*-=*-*=*-**---*--*****",
"============**=*=*=*==******=***** o;;;;;;;;; ****=*****=*-*-*=*--**=-*---*=***=",
"*=***=*=*****=****=*=***=**=*=**** o;;;;;;;;; ******=****=*-*---=****==**-**=***",
"****=*****************===*******=* oo;;;;;;;; *************--**-***-**--**--****",
"***=*********=*=***==**********    oooo;;oooo    =********=-*-=*--***=-*-*-*=**=",
"*=**=***=*=*******=*******      XX.          .XX      *******=*******===----=**=",
"=***=****=**=***=*******=  OOO XXXX..........XXXX OOO  ****==*=**=***==========*",
"=*******=***==****===**** OOOO XXXXX.XXXXXX.XXXXX OOOO **********===**=-=-====-=",
"***************=*=*=***=* OOOO XXXXXX..XX..XXXXXX OOOO *==****-***=*-=-===-=-=*-",
"*******=****=************ OOOO XXXXXXX.XX.XXXXXXX OOOO =*=**====**---*-=*-**=-==",
"-**===***=**=************ OOOo XXXXXXX.XX.XXXXXXX oOOO ****-*=---*--*--=-*=*--=-",
"***=**====*************** OOoo XXXXXXXXXXXXXXXXXX ooOO -*--=-**-*---=****=-*-*=*",
"-=-=======*===*****=***** oooo  XXXX.XXXXXX.XXXX  oooo *-*=---=**=-=*-**==******",
"---=-=--=-=**=*****==****        X..XXXXXXXX..X        -**-=--****=********=**=*",
"=---=-===-*-*******=*****= %$$ * XXXXXXXXXXXXXX * $$% ***==*-==**=*=*=*****==*=*",
"-======--=**-*-**=***=**=* %%$ * XXXXXX.XXXXXXX * $%% *-=*=--****=**=***==**=***",
"=-====--*=*=**==******=*** %%% = XXXXXX.XXXXXXX = %%% *******==*=*************=*",
"-=--==-=-**-**====*==*==*= %%% * XXXXXX.XXXXXXX = %%% *******=********=********=",
"*-*---*-=--=--=*==***==*=== %% * XXXXXX..XXXXX. * %% *********=**************===",
"--***-*=*==---=*-----*=**=  %%   XXXXXX..XXXXX.   %%  =*********************====",
"----=-*-=--==*-*--****==== $%%%  XXXXXX..XXXXX.  $%%% ***=***=***=****=***=*====",
"***==--==-=-=--=-*====*=** $%%%  XXXXX....XXXX.  $%%% *******==*******==***=====",
"***------*-*-======*==*=*= $$$$  ..............  $$$$ *****************=========",
"---===-=-***-*==*========*                            =*==*****==*************=*",
"---===---*-*=*=*=======*=*===***= ++++++++++++ *****=*******=*=***=****=********",
"==--=------=*==========**=*==*==* ++@@@@@@@@++ *****=**=******===*==*==****=****",
"-==--=============**====*===***** +@@@@@@@@@@+ ***********==****=**************=",
"----==--=**====-==**=*=**=*===**= @@@+    @@@@ *****==**=**********=*=*******=**",
"==-====--======*=======*====*===* @@@@+  +@@@@ ***===***=********************==*",
"===-=--=-====--*-=*========***==* +++++  +++++ *****=**=*=*=********==*===*=====",
"===---==--=-*=--*=*=====*==*===**              *==***=***=***********=*****=====",
"--==--=======--*=====*====*===*==* ####  #### **=***=*=*==*=******===*==***=**==",
"-=-==--=======*=*=*-=*-===*==***== %%##  ##%% ****=*******=**==**==*==****==*&&*",
"--=================*=**===**==*-*= %%%#  #%%% =*=***=*=***=***************===**&",
"-=-=--=================-*-=*-=*-=*  %%%  %%%  *******==**********=**=***=****&**",
"-===================**=*===--**==*= %%%  %%% ******==***********=******&*****=**",
"====================*==========*=**= # *= # *****=********=*=********=&***=***=&",
"===*=*====*============*===*-=*=*==* # == # ***=**********************&*=*****&*",
"=*==****=*==-*===**===*==*=*=*===*** # ** # =*==***=*******=**=***==*&***=*=*=**",
"*****-**=-====*==*===**==*==*=*===** % *= % ***=****=*****=*****=*****=*=*******",
"**=**=============****==***==*=*==*= % =* % =**=**==*=*******=*=****=***=*==**=*",
"=**==*-=============*====*=-=****** %%%  %%  =*****************=*********==**===",
"*==***======*==*=*====*=*=***==**= %%%%##%%%% *******=****===*=*****=*=*=**===**",
"****=*===============*==*===***=** %%%%##%%%% *******=********==*=**=**=*=*=*===",
"=*=*=**=============*====*====**** ####  #### *=******=****=***=*=*****=*=***==*",
"*****==*=*===*=======***==**=***=**    **    =*==***************==*=*=**=*===*=*",
"*=*****==*=-===**=***=*=*==**==*=***=***=******=***=***********=*=**=*-==**==*=*",
"****==**=****======*==*=*===**=*=**=*=********=**=********=*=**======--===*=-===",
"*=*===*=====*=*==*==***=************=********=***=****=***==**==**=========*===*",
"=*==*=*===*========************=******=*=******=****=*=*****==****==************",
"====*=======*====******=*****==******=**=*=*************=**=*=*******=**=*******",
"=*=**====*=======****=****=*****=*==**=****************=**********=*******=*****",
"*=*======*=****=********=**=*=*****==*=*******=************=******=********=**=*",
"=*=*===***=*******=***==******==*******************************=***=***********=",
"===*****===****===*=**=*=****=***=*****=***=***************=*****=*****=*=****==",
"===*****===============******=******=**=*=*******-*=*=*****-*=**&*=&****=*=*&==&",
"===***=**====**==**=******=*****==*=********=********-****==&***==*====*====*=&=",
"===*===****=******=**==********=*****=*=*******===**-**=&&-&=-*===**=****=*===*=",
"====*=********==*=***=*==*******=*=****=****==**==*=**=*&=****==&=*===*&====****",
"======****===*******************=************=*===***===****=**=&*****==********",
"======*=**===***=****************=*==*=*******=***=***=*&**=&*==**&****=******=*",
"===*********==*********==*===*=***=*===****=****=&=*******=********==***********",
"**==**=*=***==***==**************=*=*****=*****==*************************=*&==*",
"===**=****=*==**=*****=**=***=***==**=****=***=***=**-=************==*=*******=*"
};
