/* XPM */
static char *_516966c6e61468ac0bd58ad3e029ea59cfrMJbFmd2AGJnW[] = {
/* columns rows colors chars-per-pixel */
"80 80 20 1 ",
"  c #1B1516",
". c #282622",
"X c #7D162E",
"o c #423D37",
"O c #7D5831",
"+ c #5F5C59",
"@ c #7B746D",
"# c #951634",
"$ c #BA0F37",
"% c #886036",
"& c #866441",
"* c #8A6741",
"= c #9A7248",
"- c #B28F52",
"; c #B69356",
": c #B79456",
"> c #B89558",
", c #BA9759",
"< c #BD9B60",
"1 c #8A8581",
/* pixels */
"::,:,,::,,:,,:,:::::,,,,:::,,,,,,:,,,::,,,,:,,,,,,,,,,,,,,,<<,,,,,,<,<,<,<,<,<,,",
":::,::::,:::::,,,:::,,:,::,:,:,:::::::::::::::::,:,,,,,,,,,<<<,,<<<,,<<<<,<,<<<,",
"::::,:::,:,:,::,::,:::,,:::::,:,::::::,,:::::,:,:::,:,,,,,,,,,,<,<<,<,,<<,,<,<<,",
":,,:,:::,:::,:,::,::::,:,:,,:::,::,:,::,:::,,:,:::,,,,::,,,,<,,<,,,,<,<,,,<<,<,,",
"::::::::::::::::::,:,::,:::,,:,:,:,,:,,,::::,:::::,:,:::::,,,<,,,,,,,,<<,<,<<,,:",
",::::::::,::::::::,:,:::::,:,,,,,:,,,,,:::::::::::,::,::,::,,,,,,,,,,,,<,<,,<,:,",
":,,,:::,,::,,,:::::,:::::::,:,:::,,,,,,,,,,,,::,:::::,::::,::,,,,,,,,,,,,,,:::::",
",::::,:,:::,,::,:::,::,::::::::::,,,,,,,,,:,:,::::,::::::::,:,,,,,,,,,,,,,,:,:::",
":::,,:,,,,,,,,,:::,::::,,:,:::,::,,,,::,,,:,::::,:,::,,:::,::::,:,,,,,,,,::,::,:",
"::,::::,,:,,,,:,::::,:::,::::,::::,:::::,::,:::::::::,,:::,,,:::,,,,:,:,:,:::,::",
"<<,::,,<:::::::::,:,:::::::,,::::::          ::,::,:,,:,:,::::,:,,,:,::::::,::::",
":,:,<,::<,<::,:<::::::,,:::::,:,:: 1111111111 ::::,:::,:::,:::::,:::::,::::,::::",
":::<::,<,<,::<<::<::::,:::::::,,,, 1111111111 :,:,,,:,:,::,::::::::,,:::,:,::::,",
"<:::<<:,<,<<:::<:::<:::,:::,,,:::: +111111111 :,::::::::::,:::,:,:,,:::,::::::::",
":<<:::::<<<,:,:,:<<:::<::,:,:::,:: +111111111 :,:::,::::::::::::::::,:::::,,::::",
":::::,::<::<,,<:<:<<,:::::::,::::: +11        ::::::::::,::,::::::::::,:::::::,:",
":::::<<:<<<::<:,:<:,<:<:,::,,,:::: +11 X    X :::::::,:::::::::,::,:,:,,:,,:,:,,",
",:::,:<<<:<,::<<:,:<:<:,:::::,:::: +11111 111 :::::,::::::,,:,:,:,::,,,,,,,,,,,,",
":::,::<::,,::::,<<<:<:,::::,:::::: +11111 111 ::::,:,::,:::,:,::::,:::::,:,:::,:",
"::::<<::<<::<:::<::<<::::::::::::: ++1111 111 :,:::::::,,,:::::::::::::::::,::::",
",::,:<:<:<,:::<<:,<:<,::::::::     +++++1 111 :::::::::::::,,:::,:,:::::::::,:::",
",::,<<<<,,,:::::::,::::::::::: oooo             :::::::::::::,:::::::,:,:::,::,:",
":,,,,,,,,,,:::,::,:,,:::::       oooooooooooooo    ::::,:::::::,:::,::,::::,:::,",
",<,,,,<,<,::,,,::::::::::  @@@@@  ooooooooooooo +@@ :::::::,,,::::,,:::,:::::::,",
"<:,<,<,,,<,<:,:::<::::,, +@@@@@@@@ oooooooo ooo +@@ ::::,:::,:,:,:::::::::::::::",
",,<,::<:,<:<<<::,,,,::,: +@@@@@@@@ oooooooo ooo +@@ :,:::::::::::::,::::,:::::::",
"<,<<:,:<,<<:<<:<<<,:<::: +@@@@@@@@ oooooooo ooo +@@ :::::::::::::::,::,:::,,,::<",
":,:<:<,::::,<<<:<::<,<<: +@@@@@@@@ oooooooo ooo ++@ ::::::::::::::::::,,,,::,:::",
"::::::,,::<:,<,::,<<<,:< +@@@@@@@@ oooooooo ooo     ::::::::,:::::,,,:,,,,,,,<,<",
":,::,::::::::,::::<<,<:: +@@@@@@@@ oooooooo ooo * ,:::,::::,,:::::,::,<,<<,<,<<<",
":,:,,:::::,:,:,::,,<:,,: ++@@@@@@@ oo          ** ::::,:::::,:::::::<:<,,,<,<<<,",
":::,::,,:::,::,::::<<,:, ++++++++@ oooo....... ** :::::,::,:::,::<:<::,<<,,,,,,<",
":,:::::::::::::,:,,:::::           oooooooo... *= :,,::::,;;::::,,::,:,:<<,,,,<,",
",::::::::,::::::::,::::::: ***** ..ooooooo.... == ::::,:,,,,,:,,,,::<::<,<,,<<,<",
",,,::::::::::::::,:::::::: **=== .oooooooo.... == :,,,,,:,,,>,,,:,<<,<<,<:<<<:<:",
",,,,:::::::::::::::::::::, *==== .oooooooo...  == ,:,,,::,:,<<<,:,<<<,,:,:<:::<<",
",,,,:,:::,::::,:::,:::,::: *==== .oooooooo... ===   ,,,,,,::::<<:<:,,<<,<:<,<<<<",
",,,,,:::,,:::::::,,::::::: *====     ooooo... ===== ;;::,:,,,,:<,<<,<,<,,<<,,:::",
",,,,,,,,,::::::::::::::::: *======== ooooo... ===== ,,,:,:,,:,,,,,,<:<:<<<<<<:::",
":,:::::::::::::,,:::::,,:, *========          ***** ;,;,,,,,,,,:,,:<:::<,<,,,<<<",
"::::::::,::::,:::,:,:::::: **======= ########       ,,:,:,,,,,,,:,:,:<:<<<,,,<<<",
"::::,::::,,:,,:,,,::::::,:  ******** ##$$$$$$ ,:,,:,,:,::,,,,,,,,,,:,<<<<<<,<<,,",
",::::::::::::::,::::,,:::::          #$$$$$$$ ::::::,,,:,,,,::,,,,,,,,,,,,,<<,,<",
"::,:::::::,:,::::::::::,::,,:::: ####$$$$$ $$ :,::,,,;,::,:,::,,<,,,,::,<<,,<<<<",
":,,::::::::::::::::::::,:::,,,:: #$$$$$$   $$ ,:,,,:,,,,:,,,,,,,:,,,,,,<<,,,,<,,",
",,,,,:,,,:,,::::::::,:,:,::,:::: ######## ### ,:,,:::,,,,,,,,:,<:<<,,,,<,<<,<,,,",
",,,,,:::::,:::::::::::,:::,:::,,              :::,,,:,,:,,,,,:,:<<,:<,<<,,<<<,,,",
",,::,:::,,:,,,::::::,:,,:,:,:::,:: &&&&& OOO ,:,,:,,,:,,,,:,,,,,:<<,,,,,,,<<,,<<",
":--:,,::::,,:,,::,,::,:::::::,:::: &==&& OOO ,,,:::,,:,,,<:,<:,:,:,,,,,,,<<,,<,<",
"-::,,,:::::::::::::::,:::,:,:::,:, &===& O%% ,,:<:,,::,,,::,:,,,,,,,,,,,,,,,,,<<",
"::-::::,:::,::,::::::::::,,::::::: &===& %%  ,:,<:,<:,<:<,,,,,,,,,,,,,,,,,<<,<,<",
"::,:::::-::::::,:::::::::::,,::::: &===  %O ,,:,,::<<,,,:,::,,,,,,,,,,,,,,,,,,,<",
"-,:::,:::-,::::::::,:,::::::::,::: &==& %%O ,::,:,,,,,,,,,,:,,,,,,,,,,,,,,,,,,,,",
":-:::::,:-::::::::::::::::::::::,: &==& %%O :,,:,:,<:,,,:,,,,,,,,,,,,:,,,,:,:,,,",
"::,:,:,:::-:,,:::,::,:::::::,:::,, &==& %%% :::,,,:,:,:,,:,,,::,,,:<,,:,::::,,:,",
":::::::,:,:::::,:::::,:::::,::::,: &=== %%% ::,,,:,:,,:,,::,,,:,,:,,,,<,::<:::::",
":,::,,:,:::,::::,:,:::::::,:,,::,: &=== %%%  ;,,:,:,,:::,,::::,,,,,,,,,,,,,::,::",
",,,::,,:::::::::,::::::::::::::::: &==     %% :::::,<,:,,,,:,,,,,,,,,,,,,<:,,::,",
"::,,,::,:,:,:::::,:,,,::::,::::::: &======= % ,::,,:::,:,:,,,,:,:,,:,,,,,,:::,,:",
",,,:,:,:,::,::,:,,::::::::,:::::::  ======= O ::,:::,,,:,,:,,,,,,,,,,,,,,,:,::::",
":,,:::,:,:::::,:,:::,::::,::::::,:: &&&&&&&   ::::,,,,:,,,,:,,,,,,,,,,,,,::,:,:,",
":,:,,,:,::,:,:,,:::::::::::::::,,:,         :::,:::,::,,:::,,,,,,,:,,,:,:,,:::::",
":,:,,::,,<:,::,:,:::::::::::,:::,::::::,:::,:::,:,,::,,:,:,:::,::,,,<,:,,:::::,:",
",,,<,:,,,<<,,,,,,::,:,::::::::,::,::::::::,:,::,:,::,,,:,:,,:,,,,,,::::,::,,::::",
":,,,:,,,,,,,,,::,,::,,:::,::::,:::,::::::::,::::::::::::,:::,,:,,:,:,,,,,:,,,:,:",
"::::::::::::,,::::,,:::::,:,::::,::::::,:,::::::,::::::::::::,,,,,,,,:,,,:,:,,:,",
":::::::,::,:::::::,:,::,:::::::::::::,:,::,::::::,,:::::,::::::,,,,:,,,,,,,:,,,,",
":::::,:::::::,::::::::::,::::::::::::::::,::,,:,:::::,::::,::::,,,,,,,:,,,,::,:,",
":,::,::::::::,::::::,::::::::::::,:::::::,:,,:::::,:,::,::::::::,::::,:,,,,,,:,:",
",:::::::::::,:::,:::::::::::::::::::::::::::::::,,::::::,,:::,:::::::,:::,,,:,:,",
",,::::,:,:::::,:::::,:::::::::::::::,:::,:::::,:::,::::,:,::,:,,,::::,,,:::::,,,",
"-,,-:,:,::::-,:-::,:<:::::,:,:<:::::::,:,::,::::::,::::::,,,,,,,,,,,,,,,:::::,,,",
",-,:,,,,:,,,,:,,:::-,,::::<::::::::,::::::::,:,,:::::,::::::,::,,::,,,,::,:::,,,",
",:,,,:,::::,::,,,:<,-<--,::<::,,,:::::::,:,:::::,::::::::,,::,::::::,::::,,,:,,,",
"::::,,,,-:,,,:,-,,::::,-:,::,:,,::,,::::,::::,:,:::::::,,:,:::,:,,::::::::,:,,,,",
"::::::::,,:::::-,::,::::,,,:::,,,:,::::::::::::,:::::::::::::::::::,,,::::,,,,,,",
":,::::::,::::-::,,:-,::-:,:::,:::,:::::::,:,,:,::::::::::::::::,:::,,,::,:,,,,,,",
":::::::::::,,::::::::,:::::::,-,::::,::::,,,:,:::,:,,,:,,:::::::::,,:::::::::,,,",
":,,-:,:::::::::::::::::::::::::,,:::::,:::::,:,::::::::::::::,,:::,,:::,:,::,,::",
":,:::::::,:,,::::::::::::,<::,:::,:::,::::,::,,:::,:::,::,:::::,::,,:,::::,::,,,"
};
