/* XPM */
static char *_bb4c16726f546cdfbf146044025b819DsEVZrZ5koT4gnDG[] = {
/* columns rows colors chars-per-pixel */
"80 80 17 1 ",
"  c #1B1516",
". c #282622",
"X c #7D162E",
"o c #423D37",
"O c #5F5C59",
"+ c #7B746D",
"@ c #951634",
"# c #BA0F37",
"$ c #866441",
"% c #9A7248",
"& c #B28F52",
"* c #B69356",
"= c #B79456",
"- c #B89558",
"; c #BA9759",
": c #BD9B60",
"> c #8A8581",
/* pixels */
"==;=;;==;;=;;=;=====;;;;===;;;;;;=;;;==;;;;=;;;;;;;;;;;;;;;::;;;;;;:;:;:;:;:;:;;",
"===;====;=====;;;===;;=;==;=;=;=================;=;;;;;;;;;:::;;:::;;::::;:;:::;",
"====;===;=;=;==;==;===;;=====;=;======;;=====;=;===;=;;;;;;;;;;:;::;:;;::;;:;::;",
"=;;=;===;===;=;==;====;=;=;;===;==;=;==;===;;=;===;;;;==;;;;:;;:;;;;:;:;;;::;:;;",
"==================;=;==;===;;=;=;=;;=;;;====;=====;=;=====;;;:;;;;;;;;::;:;::;;=",
";========;========;=;=====;=;;;;;=;;;;;===========;==;==;==;;;;;;;;;;;;:;:;;:;=;",
"=;;;===;;==;;;=====;=======;=;===;;;;;;;;;;;;==;=====;====;==;;;;;;;;;;;;;;=====",
";====;=;===;;==;===;==;==========;;;;;;;;;=;=;====;========;=;;;;;;;;;;;;;;=;===",
"===;;=;;;;;;;;;===;====;;=;===;==;;;;==;;;=;====;=;==;;===;====;=;;;;;;;;==;==;=",
"==;====;;=;;;;=;====;===;====;====;=====;==;=========;;===;;;===;;;;=;=;=;===;==",
"::;==;;:=========;=;=======;;======          ==;==;=;;=;=;====;=;;;=;======;====",
"=;=;:;==:;:==;=:======;;=====;=;== >>>>>>>>>> ====;===;===;=====;=====;====;====",
"===:==;:;:;==::==:====;=======;;;; >>>>>>>>>> =;=;;;=;=;==;========;;===;=;====;",
":===::=;:;::===:===:===;===;;;==== O>>>>>>>>> =;==========;===;=;=;;===;========",
"=::=====:::;=;=;=::===:==;=;===;== O>>>>>>>>> =;===;==     =========;=====;;====",
"=====;==:==:;;:=:=::;=======;===== O>>        =======  %%%% ==========;=======;=",
"=====::=:::==:=;=:=;:=:=;==;;;==== O>> X    X ======= %%%%% ===;==;=;=;;=;;=;=;;",
";===;=:::=:;==::=;=:=:=;=====;==== O>>>>> >>> =====;= $%%%% =;=;=;==;;;;;;;;;;;;",
"===;==:==;;====;:::=:=;====;====== O>>>>> >>> ====;=;  $%%% =;====;=====;=;===;=",
"====::==::==:===:==::============= OO>>>> >>> =;======  $%% ===============;====",
";==;=:=:=:;===::=;:=:;========     OOOOO> >>> ========= $%% ;===;=;=========;===",
";==;::::;;;=======;=========== oooo             ======= $%% =;=======;=;===;==;=",
"=;;;;;;;;;;===;==;=;;=====       oooooooooooooo     === $%% ===;===;==;====;===;",
";:;;;;:;:;==;;;==========  +++++  ooooooooooooo O++     $%% ;;====;;===;=======;",
":=;:;:;;;:;:=;===:====;; O++++++++ oooooooo ooo O++ $%%%%%% ;=;=;===============",
";;:;==:=;:=:::==;;;;==;  O++++++++ oooooooo ooo O++ $%%%%%% =======;====;=======",
":;::=;=:;::=::=:::;=:=  ++++++++++ oooooooo ooo O++ $$$$$$$ =======;==;===;;;==:",
"=;=:=:;====;:::=:==:;  +++++++++++ oooooooo ooo OO+         ==========;;;;==;===",
"======;;==:=;:;==;:::  +++++++++++ oooooooo ooo     ========;=====;;;=;;;;;;;:;:",
"=;==;========;====::   O+++++++++  oooooooo ooo ;=;===;====;;=====;==;:;::;:;:::",
"=;=;;=====;=;=;==;;  $  O++++++   .oo          =======;=====;=======:=:;;;:;:::;",
"===;==;;===;==;==== $$$  OOOO   ..ooooo....... ========;==;===;==:=:==;::;;;;;;:",
"=;=============;=;  %%$$       ..oooooooooo... =;==;;====;**====;;==;=;=::;;;;:;",
";========;======== %%%%$$$$ == .oooooooooo.... =======;=;;;;;=;;;;==:==:;:;;::;:",
";;;==============; $%%%%%$  == .oooooooooo.... ====;;;;;=;;;-;;;=;::;::;:=:::=:=",
";;;;============== $%%%%%  === ooooooooooo...  ===;=;;;==;=;:::;=;:::;;=;=:===::",
";;;;=;===;====;=== $%%%   =;== ooooooooooo... ======;;;;;;====::=:=;;::;:=:;::::",
";;;;;===;;=======; $%%% ====== oooooooooo.... ======**==;=;;;;=:;::;:;:;;::;;===",
";;;;;;;;;========= $%%% ====== .............. ;====;;;;=;=;;=;;;;;;:=:=::::::===",
"=;=============;;= $%%%  ;;=;=                    =;*;*;;;;;;;;=;;=:===:;:;;;:::",
"========;====;===; $%%%%  =;==== ################       =;;;;;;;=;=;=:=:::;;;:::",
"====;====;;=;;=;;; $%%%%% =;==== ################ $%%%%% ;;;;;;;;;;=;::::::;::;;",
";==============;== $%%%%% ====== #########@ ##### $%%%%% ;;;==;;;;;;;;;;;;;::;;:",
"==;=======;=;===== $$$$$  ;;==== #########@ ##### $$%%%% ;=;==;;:;;;;==;::;;::::",
"=;;================      ==;;;== ########@  @#### $$$%%% ;;;;;;;=;;;;;;::;;;;:;;",
";;;;;=;;;=;;========;=;=;==;==== #@@@@@@@  @@@@@@     %% ;;;;=;:=::;;;;:;::;:;;;",
";;;;;=====;===========;===;===                    ; $%%% ;;;;=;=::;=:;::;;:::;;;",
";;==;===;;=;;;======;=;;=;=    %%%%$$$$$ =;=;;=;;=; $%%% ;=;;;;;=::;;;;;;;::;;::",
"=&&=;;====;;=;;==;;==;==    %%%%%%%%%%%$ ;;=;;;;=== $%%% :=;:=;=;=;;;;;;;::;;:;:",
"&==;;;===============;== $%%%%%%%%%%%%%$ =;;;;;=:=; $%%% ==;=;;;;;;;;;;;;;;;;;::",
"==&====;===;==;========= $%%%%%%%%%%%%%$ ;;;;;=;:=; $%%% ;;;;;;;;;;;;;;;;;::;:;:",
"==;=====&======;======== $%%%%%$$$$$$$$  ;;=;;=;;== $%%%   =;;;;;;;;;;;;;;;;;;;:",
"&;===;===&;========;=;== $%%%$$         =;;;;==;=;;  %%%%%% ;;;;;;;;;;;;;;;;;;;;",
"=&=====;=&============== $%%%   ;======;;=;;=;;=;=;: %%%%%% ;;;;;;;;;=;;;;=;=;;;",
"==;=;=;===&=;;===;==;=== $%%% ==;;=;=;=====;===;;;=; $$$$$$ ;==;;;=:;;=;====;;=;",
"=======;=;=====;=====;== $%%% ==;======;======;;;=;=       ;;;=;;=;;;;:;==:=====",
"=;==;;=;===;====;=;===== $$$$ ==;==;====;=;=;=;;=;=;;===;;====;;;;;;;;;;;;;==;==",
";;;==;;=========;========    =====;======;==;======;:;=;;;;=;;;;;;;;;;;;;:=;;==;",
"==;;;==;=;=;=====;=;;;====;=============;=====;==;;===;=;=;;;;=;=;;=;;;;;;===;;=",
";;;=;=;=;==;==;=;;========;========;=======;;===;===;;;=;;=;;;;;;;;;;;;;;;=;====",
"=;;===;=;=====;=;===;====;======;==;===;==========;;;;=;;;;=;;;;;;;;;;;;;==;=;=;",
"=;=;;;=;==;=;=;;===============;;=;;===========;===;==;;===;;;;;;;=;;;=;=;;=====",
"=;=;;==;;:=;==;=;===========;===;======;===;===;=;;==;;=;=;===;==;;;:;=;;=====;=",
";;;:;=;;;::;;;;;;==;=;========;==;========;=;==;=;==;;;=;=;;=;;;;;;====;==;;====",
"=;;;=;;;;;;;;;==;;==;;===;====;===;========;============;===;;=;;=;=;;;;;=;;;=;=",
"============;;====;;=====;=;====;======;=;======;============;;;;;;;;=;;;=;=;;=;",
"=======;==;=======;=;==;=============;=;==;======;;=====;======;;;;=;;;;;;;=;;;;",
"=====;=======;==========;================;==;;=;=====;====;====;;;;;;;=;;;;==;=;",
"=;==;========;======;============;=======;=;;=====;=;==;========;====;=;;;;;;=;=",
";===========;===;===============================;;======;;===;=======;===;;;=;=;",
";;====;=;=====;=====;===============;===;=====;===;====;=;==;=;;;====;;;=====;;;",
"&;;&=;=;====&;=&==;=:=====;=;=:=======;=;==;======;======;;;;;;;;;;;;;;;=====;;;",
";&;=;;;;=;;;;=;;===&;;====:========;========;=;;=====;======;==;;==;;;;==;===;;;",
";=;;;=;====;==;;;=:;&:&&;==:==;;;=======;=;=====;========;;==;======;====;;;=;;;",
"====;;;;&=;;;=;&;;====;&=;==;=;;==;;====;====;=;=======;;=;===;=;;========;=;;;;",
"========;;=====&;==;====;;;===;;;=;============;===================;;;====;;;;;;",
"=;======;====&==;;=&;==&=;===;===;=======;=;;=;================;===;;;==;=;;;;;;",
"===========;;========;=======;&;====;====;;;=;===;=;;;=;;=========;;=========;;;",
"=;;&=;=========================;;=====;=====;=;==============;;===;;===;=;==;;==",
"=;=======;=;;============;:==;===;===;====;==;;===;===;==;=====;==;;=;====;==;;;"
};
